<?xml version="1.0" encoding="UTF-8" standalone="no"?><!DOCTYPE svg PUBLIC "-//W3C//DTD SVG 1.1//EN" "http://www.w3.org/Graphics/SVG/1.1/DTD/svg11.dtd"><svg width="100%" height="100%" viewBox="0 0 280 319" version="1.1" xmlns="http://www.w3.org/2000/svg" xmlns:xlink="http://www.w3.org/1999/xlink" xml:space="preserve" xmlns:serif="http://www.serif.com/" style="fill-rule:evenodd;clip-rule:evenodd;stroke-linecap:round;stroke-linejoin:round;stroke-miterlimit:10;"><g><path d="M273.687,73.149l0,84.745l-73.14,0l0,73.14l-84.745,0l0,-73.14l-73.149,0l0,-84.745l73.149,0l0,-73.149l84.745,0l0,73.149l73.14,0Z" style="fill:#afecff;fill-rule:nonzero;"/><path d="M90.51,36.314l0.922,26.697c0.102,2.959 1.11,5.858 3.054,8.091c1.826,2.097 4.621,3.907 8.72,3.444c8.946,-1.009 12.84,-6.059 12.84,-6.059" style="fill:none;fill-rule:nonzero;stroke:#002c51;stroke-width:1px;"/><path d="M116.525,177.295c2.546,-12.273 6.26,-26.515 8.646,-38.521c0.289,-1.444 0.567,-2.964 0.149,-4.366c-0.834,-2.814 -4.002,-4.098 -6.783,-5.008c5.039,-5.788 11.299,-10.507 18.232,-13.792c1.692,-0.813 3.436,-1.53 5.201,-2.161c-0.321,-2.772 -0.642,-5.554 -0.953,-8.325c-0.834,-7.212 -1.669,-14.424 -2.493,-21.647c-0.128,-1.123 -0.268,-2.268 -0.514,-3.37c-0.203,-0.974 -0.503,-1.926 -0.963,-2.814c-1.733,-3.392 -7.201,-5.886 -10.592,-7.491c-0.129,-0.064 -0.236,-0.117 -0.354,-0.171" style="fill:none;fill-rule:nonzero;stroke:#002c51;stroke-width:1px;"/><path d="M130.598,46.951c0.055,0.202 0.085,0.41 0.089,0.621c1.255,-2.422 2.972,-4.318 3.662,-6.956c0.691,-2.639 0.786,-5.513 -0.25,-8.036c-1.035,-2.524 -3.338,-4.615 -6.048,-4.921c0.055,-3.256 -0.149,-7.052 -2.806,-8.936c-1.531,-1.086 -3.55,-1.232 -5.41,-0.972c-1.859,0.261 -3.65,0.885 -5.501,1.202c-4.139,0.711 -8.366,-0.133 -12.56,-0.368c-4.194,-0.234 -8.772,0.296 -11.834,3.172c-2.11,1.981 -3.232,4.967 -2.949,7.848c0.283,2.881 1.964,5.592 4.419,7.124c2.821,1.761 6.335,1.923 9.657,1.777c5.062,-0.223 9.958,-1.23 14.83,-2.621c1.808,0.516 3.057,2.24 3.575,4.048c0.519,1.809 0.439,3.724 0.442,5.605c0.003,1.88 0.108,3.826 0.946,5.51c0.612,1.232 2.031,2.363 3.266,1.757c0.962,-0.472 1.222,-1.732 1.142,-2.802c-0.08,-1.069 -0.377,-2.166 -0.066,-3.192c0.382,-1.265 1.758,-2.146 3.068,-1.964c3.811,0.528 3.041,7.027 2.103,9.447c-0.901,2.326 -2.622,4.327 -4.788,5.566" style="fill:none;fill-rule:nonzero;stroke:#002c51;stroke-width:1px;"/><path d="M103.203,74.551c0,0 -0.866,3.691 -2.129,10.347" style="fill:none;fill-rule:nonzero;stroke:#002c51;stroke-width:1px;"/><path d="M145.744,162.516l-0.194,-13.826" style="fill:none;fill-rule:nonzero;stroke:#002c51;stroke-width:1px;"/><path d="M150.38,184.336c0,0.042 0.011,0.096 0.011,0.139c0.738,7.853 4.173,16.371 6.227,20.876c0.909,2.011 1.551,3.22 1.551,3.22l-43.656,25.061" style="fill:none;fill-rule:nonzero;stroke:#002c51;stroke-width:1px;"/><path d="M115.85,201.541c0.011,-0.063 0,-0.117 0,-0.171" style="fill:none;fill-rule:nonzero;stroke:#002c51;stroke-width:1px;"/><path d="M126.915,86.236c-3.413,8.271 -13.461,22.214 -13.461,31.159c0,1.723 0.097,6.11 0.246,12.081c0.246,9.33 0.631,22.513 1.017,35.396l-9.459,-5.457l-0.022,10.036c0,0.343 -0.128,0.621 -0.353,0.739c-0.203,0.129 -0.513,0.096 -0.834,-0.085l-8.71,-5.019l-0.032,11.685l8.71,5.04c0.321,0.171 0.609,0.481 0.824,0.855c0.235,0.386 0.352,0.792 0.352,1.156l-0.021,8.143l0,0.011c-0.834,0.395 -1.658,0.813 -2.493,1.219c-2.151,1.06 -4.366,2.172 -5.907,4.002c-0.984,1.177 -1.626,2.75 -1.626,4.27c0,0.834 0.193,1.669 0.642,2.396c0.878,1.456 2.558,2.269 4.248,2.472c1.68,0.203 3.381,-0.139 5.019,-0.557c3.756,-0.973 7.382,-2.396 10.796,-4.237c0.085,4.409 -1.337,32.091 -1.337,32.091c-7.983,2.504 -12.83,-1.392 -12.83,-1.392l-10.187,-6.441l0.032,-0.054c-0.513,-8.185 -0.792,-16.285 -0.887,-24.224l0,-0.011c-0.108,-8.593 0.01,-16.982 0.278,-25.125c0.139,-3.841 0.309,-7.629 0.503,-11.353c1.936,-35.899 6.815,-65.335 9.651,-80.133c2.375,5.093 7.94,8.538 13.568,8.346c5.735,-0.204 11.16,-4.163 13.097,-9.566l0.064,0.021c-0.225,0.781 -0.513,1.626 -0.888,2.536" style="fill:#002c51;fill-rule:nonzero;"/><path d="M126.915,86.236c-3.413,8.271 -13.461,22.214 -13.461,31.159c0,1.723 0.097,6.11 0.246,12.081c0.246,9.33 0.631,22.513 1.017,35.396l-9.459,-5.457l-0.022,10.036c0,0.343 -0.128,0.621 -0.353,0.739c-0.203,0.129 -0.513,0.096 -0.834,-0.085l-8.71,-5.019l-0.032,11.685l8.71,5.04c0.321,0.171 0.609,0.481 0.824,0.855c0.235,0.386 0.352,0.792 0.352,1.156l-0.021,8.143l0,0.011c-0.834,0.395 -1.658,0.813 -2.493,1.219c-2.151,1.06 -4.366,2.172 -5.907,4.002c-0.984,1.177 -1.626,2.75 -1.626,4.27c0,0.834 0.193,1.669 0.642,2.396c0.878,1.456 2.558,2.269 4.248,2.472c1.68,0.203 3.381,-0.139 5.019,-0.557c3.756,-0.973 7.382,-2.396 10.796,-4.237c0.085,4.409 -1.337,32.091 -1.337,32.091c-7.983,2.504 -12.83,-1.392 -12.83,-1.392l-10.187,-6.441l0.032,-0.054c-0.513,-8.185 -0.792,-16.285 -0.887,-24.224l0,-0.011c-0.108,-8.593 0.01,-16.982 0.278,-25.125c0.139,-3.841 0.309,-7.629 0.503,-11.353c1.936,-35.899 6.815,-65.335 9.651,-80.133c2.375,5.093 7.94,8.538 13.568,8.346c5.735,-0.204 11.16,-4.163 13.097,-9.566l0.064,0.021c-0.225,0.781 -0.513,1.626 -0.888,2.536Z" style="fill:none;fill-rule:nonzero;stroke:#002c51;stroke-width:1px;"/><path d="M125.587,59.86l0.867,9.94l0.46,5.276c0,0 2.707,2.289 0.888,8.624" style="fill:none;fill-rule:nonzero;stroke:#002c51;stroke-width:1px;"/><path d="M90.6,176.379c-2.249,-11.892 -3.537,-27.375 -5.786,-39.268c-0.675,-3.568 -1.343,-7.303 -0.292,-10.779c1.146,-3.791 3.381,-6.646 6.271,-9.354c-2.484,-3.155 -4.833,-6.23 -7.316,-9.385c2.922,-12.328 8.7,-22.806 16.75,-32.589c-4.857,0.876 -11.975,1.379 -14.839,5.4c-1.737,2.439 -2.232,5.523 -2.657,8.487c-2.071,14.452 -3.615,31.638 -4.629,46.202" style="fill:none;fill-rule:nonzero;stroke:#002c51;stroke-width:1px;"/><path d="M125.627,193.724c0,0 0.697,0.166 0.33,5.234c11.162,-6.619 22.325,-13.238 33.488,-19.856c2.925,-1.734 5.97,-3.586 7.709,-6.508c2.354,-3.957 1.792,-8.925 1.156,-13.485l-7.667,-54.904c-0.814,-5.822 -1.787,-12.007 -5.677,-16.415c-4.234,-4.796 -10.932,-6.393 -17.186,-7.738" style="fill:none;fill-rule:nonzero;stroke:#002c51;stroke-width:1px;"/><path d="M136.749,115.517c4.002,15.096 7.863,29.631 11.865,44.727c-9.647,7.63 -16.355,13.028 -25.936,20.615" style="fill:none;fill-rule:nonzero;stroke:#002c51;stroke-width:1px;"/><path d="M141.37,105.084c0.002,-4.038 1.438,-8.062 3.995,-11.188c2.556,-3.126 6.214,-5.333 10.171,-6.137" style="fill:none;fill-rule:nonzero;stroke:#002c51;stroke-width:1px;"/><path d="M101.074,84.899c-0.064,-0.096 -0.107,-0.193 -0.15,-0.3" style="fill:none;fill-rule:nonzero;stroke:#002c51;stroke-width:1px;"/><path d="M91.497,225.799l-15.397,-9.727c0.075,-13.161 0.149,-28.216 0.224,-42.008c0,-0.985 0.011,-1.958 0.011,-2.921c0.011,-1.724 0.021,-3.436 0.032,-5.105" style="fill:none;fill-rule:nonzero;stroke:#002c51;stroke-width:1px;"/><path d="M125.438,194.801c-2.899,2.621 -6.131,4.89 -9.588,6.74" style="fill:none;fill-rule:nonzero;stroke:#002c51;stroke-width:1px;"/><path d="M39.607,143.038c1.174,1.903 2.799,3.808 5.014,4.115c2.378,0.33 4.714,-1.451 5.522,-3.711c0.808,-2.259 0.316,-4.821 -0.784,-6.955c-1.099,-2.134 -2.754,-3.921 -4.388,-5.679c-1.183,-1.274 -2.368,-2.548 -3.552,-3.822c-3.254,-3.502 -7.209,-1.109 -6.541,3.425c0.622,4.21 2.509,9.027 4.729,12.627Z" style="fill:none;fill-rule:nonzero;stroke:#002c51;stroke-width:1px;"/><path d="M37.466,125.31l-7.118,-26.574l34.241,8.657l19.429,59.825l-34.818,-5.387l-4.58,-14.678" style="fill:none;fill-rule:nonzero;stroke:#002c51;stroke-width:1px;"/><path d="M30.349,98.736l4.455,-2.314l33.826,8.662l17.312,57.324l-1.924,4.81" style="fill:none;fill-rule:nonzero;stroke:#002c51;stroke-width:1px;"/><path d="M104.977,89.807c4.363,-2.666 8.728,-5.331 13.091,-7.997" style="fill:none;fill-rule:nonzero;stroke:#002c51;stroke-width:1px;"/><path d="M102.471,86.691c4.367,-2.726 8.734,-5.453 13.103,-8.179" style="fill:none;fill-rule:nonzero;stroke:#002c51;stroke-width:1px;"/><path d="M102.533,81.6c3.464,-2.019 6.928,-4.037 10.391,-6.055" style="fill:none;fill-rule:nonzero;stroke:#002c51;stroke-width:1px;"/><path d="M103.263,77.04c1.603,-0.936 3.205,-1.872 4.807,-2.808" style="fill:none;fill-rule:nonzero;stroke:#002c51;stroke-width:1px;"/><path d="M152.715,198.995c-4.133,2.313 -8.266,4.628 -12.398,6.941" style="fill:none;fill-rule:nonzero;stroke:#002c51;stroke-width:1px;"/><path d="M154.832,202.369c-2.929,1.548 -5.857,3.097 -8.786,4.645" style="fill:none;fill-rule:nonzero;stroke:#002c51;stroke-width:1px;"/><path d="M156.617,205.353l-6.606,4.23" style="fill:none;fill-rule:nonzero;stroke:#002c51;stroke-width:1px;"/><path d="M87.687,32.314c5.641,-3.527 15.388,-9.622 21.028,-13.148" style="fill:none;fill-rule:nonzero;stroke:#002c51;stroke-width:1px;"/><path d="M87.544,27.788c4.631,-2.926 9.261,-5.853 13.892,-8.78" style="fill:none;fill-rule:nonzero;stroke:#002c51;stroke-width:1px;"/><path d="M91.598,35.727c7.284,-4.752 22.314,-13.082 29.598,-17.834" style="fill:none;fill-rule:nonzero;stroke:#002c51;stroke-width:1px;"/><path d="M127.327,21.287c-9.585,6.107 -19.425,11.815 -29.484,17.104" style="fill:none;fill-rule:nonzero;stroke:#002c51;stroke-width:1px;"/><path d="M112.586,36.488c5.128,-2.989 10.255,-5.978 15.383,-8.967" style="fill:none;fill-rule:nonzero;stroke:#002c51;stroke-width:1px;"/><path d="M119.948,39.617c4.225,-2.704 8.45,-5.408 12.675,-8.111" style="fill:none;fill-rule:nonzero;stroke:#002c51;stroke-width:1px;"/><path d="M120.279,45.392c4.954,-2.667 9.089,-4.893 14.043,-7.561" style="fill:none;fill-rule:nonzero;stroke:#002c51;stroke-width:1px;"/><path d="M163.285,123.12l10.925,-5.65l59.461,34.894l35.75,20.983l-11.417,6.559l-138.953,79.813l-16.576,9.524l-57.887,-33.664l-36.874,-21.443l17.003,-9.93l51.607,-30.142" style="fill:none;fill-rule:nonzero;stroke:#002c51;stroke-width:1px;"/><path d="M76.104,171.139l-75.604,43.57l0,3.397c0,3.968 2.122,7.632 5.562,9.608l90.529,52.01c3.424,1.967 7.637,1.963 11.058,-0.01l156.232,-90.138c3.43,-1.978 5.543,-5.637 5.543,-9.597l0,-6.631" style="fill:none;fill-rule:nonzero;stroke:#002c51;stroke-width:1px;"/><path d="M0.501,214.709l102.032,60.089l166.892,-97.652" style="fill:none;fill-rule:nonzero;stroke:#002c51;stroke-width:1px;"/><path d="M24.994,204.692l93.961,54.851" style="fill:none;fill-rule:nonzero;stroke:#002c51;stroke-width:1px;"/><path d="M163.648,125.688l64.116,36.841l30.239,17.377" style="fill:none;fill-rule:nonzero;stroke:#002c51;stroke-width:1px;"/><path d="M209.715,212.084l0,8.743" style="fill:none;fill-rule:nonzero;stroke:#002c51;stroke-width:1px;"/><path d="M245.928,190.896l0,9.358" style="fill:none;fill-rule:nonzero;stroke:#002c51;stroke-width:1px;"/><path d="M191.614,134.589l39.05,22.891" style="fill:none;fill-rule:nonzero;stroke:#002c51;stroke-width:1px;"/><path d="M75.576,245.168c0.436,0 0.857,-0.095 1.183,-0.284c0.326,-0.19 0.481,-0.43 0.486,-0.687c-0.001,-0.252 -0.166,-0.497 -0.494,-0.686l-25.23,-14.566c-0.321,-0.185 -0.743,-0.28 -1.179,-0.28c-0.443,0.004 -0.865,0.091 -1.19,0.28c-0.326,0.189 -0.481,0.438 -0.48,0.69c0.002,0.253 0.167,0.497 0.488,0.682l25.229,14.567c0.328,0.189 0.75,0.284 1.187,0.284" style="fill:#002c51;fill-rule:nonzero;"/><path d="M75.576,245.168c0.436,0 0.857,-0.095 1.183,-0.284c0.326,-0.19 0.481,-0.43 0.486,-0.687c-0.001,-0.252 -0.166,-0.497 -0.494,-0.686l-25.23,-14.566c-0.321,-0.185 -0.743,-0.28 -1.179,-0.28c-0.443,0.004 -0.865,0.091 -1.19,0.28c-0.326,0.189 -0.481,0.438 -0.48,0.69c0.002,0.253 0.167,0.497 0.488,0.682l25.229,14.567c0.328,0.189 0.75,0.284 1.187,0.284Z" style="fill:none;fill-rule:nonzero;stroke:#002c51;stroke-width:1px;"/><path d="M79.042,246.204c-1.904,1.103 -4.997,1.103 -6.923,0l-25.231,-14.573c-1.905,-1.103 -1.905,-2.89 -0.011,-4.002c1.905,-1.103 4.986,-1.103 6.902,0l25.231,14.573c1.927,1.103 1.927,2.89 0.032,4.002" style="fill:#002c51;fill-rule:nonzero;"/><path d="M79.042,246.204c-1.904,1.103 -4.997,1.103 -6.923,0l-25.231,-14.573c-1.905,-1.103 -1.905,-2.89 -0.011,-4.002c1.905,-1.103 4.986,-1.103 6.902,0l25.231,14.573c1.927,1.103 1.927,2.89 0.032,4.002Z" style="fill:none;fill-rule:nonzero;stroke:#002c51;stroke-width:1px;"/><path d="M125.289,182.366l-0.032,9.994l0,1.701l-8.721,-5.049c-0.321,-0.162 -0.61,-0.214 -0.846,-0.076c-0.192,0.129 -0.332,0.396 -0.332,0.749l-0.032,10.016l-10.165,-5.875l0.011,-1.851l0,-0.01l0.021,-8.143c0,-0.364 -0.117,-0.77 -0.352,-1.156c-0.215,-0.374 -0.503,-0.685 -0.824,-0.856l-8.71,-5.04l0.032,-11.684l8.71,5.018c0.321,0.182 0.631,0.214 0.834,0.085c0.225,-0.117 0.353,-0.395 0.353,-0.738l0.022,-10.037l9.459,5.458l0.706,0.406l-0.032,10.037c0,0.353 0.139,0.781 0.353,1.134c0.203,0.364 0.482,0.664 0.781,0.846c0.011,0.01 0.033,0.021 0.043,0.032l6.11,3.531l2.611,1.508Z" style="fill:none;fill-rule:nonzero;stroke:#002c51;stroke-width:1px;"/><path d="M31.529,103.923c1.918,-1.163 3.837,-2.326 5.755,-3.488" style="fill:none;fill-rule:nonzero;stroke:#002c51;stroke-width:1px;"/><path d="M33.653,108.332c3.064,-1.898 6.127,-3.796 9.191,-5.695" style="fill:none;fill-rule:nonzero;stroke:#002c51;stroke-width:1px;"/><path d="M35.081,113.599c5.258,-3.084 10.516,-6.168 15.774,-9.253" style="fill:none;fill-rule:nonzero;stroke:#002c51;stroke-width:1px;"/><path d="M36.27,118.75l22.169,-12.924" style="fill:none;fill-rule:nonzero;stroke:#002c51;stroke-width:1px;"/><path d="M37.512,125.096c8.909,-5.54 17.817,-11.081 26.727,-16.621" style="fill:none;fill-rule:nonzero;stroke:#002c51;stroke-width:1px;"/><path d="M43.152,127.863c7.919,-4.789 15.837,-9.577 23.756,-14.365" style="fill:none;fill-rule:nonzero;stroke:#002c51;stroke-width:1px;"/><path d="M47.556,133.378c6.806,-3.982 13.612,-7.965 20.418,-11.947" style="fill:none;fill-rule:nonzero;stroke:#002c51;stroke-width:1px;"/><path d="M50.391,139.352c6.879,-4.084 13.758,-8.168 20.637,-12.253" style="fill:none;fill-rule:nonzero;stroke:#002c51;stroke-width:1px;"/><path d="M46.343,150.262c9.021,-5.227 18.044,-10.454 27.065,-15.681" style="fill:none;fill-rule:nonzero;stroke:#002c51;stroke-width:1px;"/><path d="M48.209,156.344l27.217,-15.563" style="fill:none;fill-rule:nonzero;stroke:#002c51;stroke-width:1px;"/><path d="M50.444,162.213c8.821,-4.86 17.643,-9.719 26.463,-14.578" style="fill:none;fill-rule:nonzero;stroke:#002c51;stroke-width:1px;"/><path d="M61.818,163.783l16.878,-9.813" style="fill:none;fill-rule:nonzero;stroke:#002c51;stroke-width:1px;"/><path d="M81.483,159.411l-9.803,5.898" style="fill:none;fill-rule:nonzero;stroke:#002c51;stroke-width:1px;"/><path d="M245.158,173.321l-12.293,21.026" style="fill:none;fill-rule:nonzero;stroke:#002c51;stroke-width:1px;"/><path d="M232.865,166.033l-23.149,41.611" style="fill:none;fill-rule:nonzero;stroke:#002c51;stroke-width:1px;"/><path d="M221.29,158.877l-35.783,62.672" style="fill:none;fill-rule:nonzero;stroke:#002c51;stroke-width:1px;"/><path d="M209.715,152.166l-48.62,82.308" style="fill:none;fill-rule:nonzero;stroke:#002c51;stroke-width:1px;"/><path d="M37.082,211.239l12.293,-21.026" style="fill:none;fill-rule:nonzero;stroke:#002c51;stroke-width:1px;"/><path d="M49.375,218.526l23.15,-41.61" style="fill:none;fill-rule:nonzero;stroke:#002c51;stroke-width:1px;"/><path d="M149.963,283.205l0,0.024c0,1.294 -0.838,2.577 -2.538,3.562c-1.467,0.851 -3.316,1.331 -5.238,1.442c-0.308,0.025 -0.628,0.036 -0.937,0.036c-0.345,0 -0.678,-0.011 -1.022,-0.036c-1.886,-0.124 -3.698,-0.604 -5.164,-1.442c-1.713,-0.998 -2.564,-2.279 -2.576,-3.586c0,-1.294 0.838,-2.588 2.538,-3.574c1.702,-0.998 3.932,-1.491 6.175,-1.491c2.243,0 4.461,0.505 6.187,1.491c1.713,0.986 2.575,2.28 2.575,3.574Z" style="fill:none;fill-rule:nonzero;stroke:#002c51;stroke-width:1px;"/><path d="M149.963,283.23c0,1.294 -0.838,2.576 -2.538,3.562c-1.467,0.85 -3.316,1.331 -5.238,1.442c-0.308,0.024 -0.628,0.036 -0.937,0.036c-0.345,0 -0.678,-0.012 -1.022,-0.036c-1.886,-0.125 -3.698,-0.606 -5.164,-1.442c-1.713,-1 -2.564,-2.28 -2.576,-3.587c0,-1.293 0.838,-2.587 2.538,-3.575c1.702,-0.998 3.932,-1.49 6.175,-1.49c2.243,0 4.461,0.505 6.187,1.49c1.713,0.988 2.575,2.281 2.575,3.575l0,0.024Zm-0.838,-4.608c-4.387,-2.538 -11.485,-2.538 -15.848,0c-2.231,1.293 -3.315,2.995 -3.253,4.683c0.024,0.615 0.197,1.233 0.53,1.836c0.086,0.173 0.184,0.332 0.295,0.493c0.394,0.567 0.937,1.11 1.627,1.601c0.258,0.185 0.554,0.384 0.863,0.555c0.911,0.531 1.935,0.937 3.019,1.245c3.056,0.863 6.642,0.875 9.699,0.024c1.134,-0.296 2.181,-0.726 3.118,-1.269c0.27,-0.161 0.529,-0.32 0.776,-0.505c1.652,-1.171 2.477,-2.613 2.477,-4.041c0.013,-1.678 -1.097,-3.353 -3.303,-4.623Z" style="fill:none;fill-rule:nonzero;stroke:#002c51;stroke-width:1px;"/><path d="M152.428,283.242l-0.024,3.882c0,1.651 -1.085,3.29 -3.254,4.559c-4.363,2.527 -11.461,2.527 -15.848,0c-2.206,-1.281 -3.315,-2.958 -3.303,-4.621l0.025,-3.758c0.024,0.616 0.197,1.232 0.53,1.835c0.086,0.173 0.185,0.333 0.295,0.494c0.394,0.566 0.937,1.109 1.627,1.601c0.259,0.186 0.555,0.383 0.863,0.555c0.911,0.53 1.935,0.936 3.019,1.245c3.056,0.862 6.642,0.875 9.699,0.024c1.134,-0.295 2.182,-0.726 3.118,-1.269c0.271,-0.16 0.529,-0.32 0.776,-0.505c1.652,-1.171 2.477,-2.612 2.477,-4.042Z" style="fill:none;fill-rule:nonzero;stroke:#002c51;stroke-width:1px;"/><path d="M123.312,285.287l65.66,-40.197c1.941,-1.159 4.36,-1.162 6.303,-0.008l35.867,21.312c4.05,2.407 4.009,8.284 -0.075,10.632l-66.825,39.842c-1.942,1.117 -4.337,1.091 -6.254,-0.066l-34.702,-20.956c-3.978,-2.403 -3.964,-8.176 0.026,-10.559Z" style="fill:none;fill-rule:nonzero;stroke:#002c51;stroke-width:1px;"/><path d="M173.38,296.968l0,0.024c0,1.294 -0.838,2.577 -2.538,3.562c-1.467,0.851 -3.316,1.331 -5.238,1.442c-0.308,0.025 -0.628,0.037 -0.937,0.037c-0.345,0 -0.678,-0.012 -1.022,-0.037c-1.886,-0.123 -3.698,-0.603 -5.164,-1.442c-1.713,-0.998 -2.563,-2.279 -2.576,-3.586c0,-1.294 0.838,-2.588 2.539,-3.574c1.701,-0.998 3.931,-1.491 6.174,-1.491c2.243,0 4.461,0.505 6.187,1.491c1.713,0.986 2.575,2.28 2.575,3.574Z" style="fill:none;fill-rule:nonzero;stroke:#002c51;stroke-width:1px;"/><path d="M173.38,296.992c0,1.294 -0.838,2.576 -2.538,3.562c-1.467,0.85 -3.316,1.331 -5.238,1.442c-0.308,0.024 -0.628,0.037 -0.937,0.037c-0.345,0 -0.678,-0.013 -1.022,-0.037c-1.886,-0.123 -3.698,-0.604 -5.164,-1.442c-1.713,-0.999 -2.563,-2.28 -2.576,-3.586c0,-1.294 0.838,-2.588 2.539,-3.575c1.701,-0.998 3.931,-1.491 6.174,-1.491c2.243,0 4.461,0.506 6.187,1.491c1.713,0.987 2.575,2.281 2.575,3.575l0,0.024Zm-0.838,-4.608c-4.387,-2.539 -11.485,-2.539 -15.848,0c-2.231,1.294 -3.315,2.994 -3.253,4.682c0.024,0.616 0.197,1.233 0.53,1.836c0.086,0.173 0.184,0.333 0.296,0.493c0.393,0.568 0.936,1.11 1.626,1.603c0.258,0.184 0.554,0.382 0.863,0.555c0.912,0.529 1.935,0.936 3.019,1.244c3.056,0.863 6.642,0.875 9.699,0.024c1.134,-0.296 2.181,-0.726 3.118,-1.268c0.27,-0.161 0.529,-0.322 0.776,-0.506c1.652,-1.171 2.477,-2.613 2.477,-4.042c0.013,-1.676 -1.097,-3.352 -3.303,-4.621Z" style="fill:none;fill-rule:nonzero;stroke:#002c51;stroke-width:1px;"/><path d="M175.845,297.005l-0.024,3.882c0,1.651 -1.085,3.291 -3.253,4.559c-4.364,2.527 -11.462,2.527 -15.849,0c-2.206,-1.281 -3.315,-2.957 -3.303,-4.621l0.025,-3.758c0.024,0.616 0.197,1.232 0.53,1.835c0.086,0.173 0.185,0.333 0.296,0.494c0.393,0.567 0.936,1.109 1.626,1.602c0.259,0.185 0.555,0.382 0.863,0.555c0.912,0.529 1.935,0.936 3.019,1.244c3.056,0.863 6.642,0.875 9.699,0.024c1.134,-0.295 2.182,-0.726 3.118,-1.268c0.271,-0.16 0.529,-0.321 0.776,-0.506c1.652,-1.171 2.477,-2.612 2.477,-4.042Z" style="fill:none;fill-rule:nonzero;stroke:#002c51;stroke-width:1px;"/><path d="M172.899,269.325l0,0.024c0,1.294 -0.838,2.576 -2.538,3.562c-1.467,0.851 -3.316,1.331 -5.238,1.441c-0.308,0.026 -0.628,0.037 -0.937,0.037c-0.345,0 -0.678,-0.011 -1.022,-0.037c-1.886,-0.123 -3.698,-0.603 -5.164,-1.441c-1.713,-0.998 -2.563,-2.28 -2.576,-3.586c0,-1.294 0.838,-2.589 2.539,-3.574c1.701,-0.998 3.931,-1.491 6.174,-1.491c2.243,0 4.461,0.504 6.187,1.491c1.713,0.985 2.575,2.28 2.575,3.574Z" style="fill:none;fill-rule:nonzero;stroke:#002c51;stroke-width:1px;"/><path d="M172.899,269.35c0,1.294 -0.838,2.575 -2.538,3.562c-1.467,0.85 -3.316,1.331 -5.238,1.441c-0.308,0.025 -0.628,0.037 -0.937,0.037c-0.345,0 -0.678,-0.012 -1.022,-0.037c-1.886,-0.123 -3.698,-0.604 -5.164,-1.441c-1.713,-0.999 -2.563,-2.281 -2.576,-3.586c0,-1.294 0.838,-2.589 2.539,-3.575c1.701,-0.998 3.931,-1.491 6.174,-1.491c2.243,0 4.461,0.505 6.187,1.491c1.713,0.986 2.575,2.281 2.575,3.575l0,0.024Zm-0.838,-4.609c-4.387,-2.538 -11.485,-2.538 -15.848,0c-2.231,1.294 -3.315,2.995 -3.253,4.683c0.024,0.615 0.197,1.232 0.53,1.836c0.086,0.173 0.184,0.333 0.295,0.493c0.394,0.567 0.937,1.109 1.627,1.602c0.258,0.184 0.554,0.382 0.863,0.555c0.911,0.53 1.935,0.936 3.019,1.245c3.056,0.862 6.642,0.875 9.699,0.024c1.134,-0.296 2.181,-0.727 3.118,-1.269c0.27,-0.161 0.529,-0.321 0.776,-0.505c1.652,-1.171 2.477,-2.614 2.477,-4.043c0.013,-1.676 -1.097,-3.352 -3.303,-4.621Z" style="fill:none;fill-rule:nonzero;stroke:#002c51;stroke-width:1px;"/><path d="M175.364,269.361l-0.024,3.883c0,1.651 -1.085,3.29 -3.254,4.559c-4.363,2.527 -11.461,2.527 -15.848,0c-2.206,-1.282 -3.315,-2.958 -3.303,-4.621l0.025,-3.759c0.024,0.616 0.197,1.232 0.53,1.836c0.086,0.173 0.185,0.333 0.295,0.494c0.394,0.566 0.937,1.108 1.627,1.601c0.259,0.185 0.555,0.382 0.863,0.555c0.911,0.53 1.935,0.936 3.019,1.245c3.056,0.862 6.642,0.875 9.699,0.024c1.134,-0.296 2.182,-0.727 3.118,-1.269c0.271,-0.16 0.529,-0.32 0.776,-0.505c1.652,-1.171 2.477,-2.613 2.477,-4.043Z" style="fill:none;fill-rule:nonzero;stroke:#002c51;stroke-width:1px;"/><path d="M196.304,283.754l0,0.024c0,1.294 -0.838,2.576 -2.539,3.562c-1.467,0.851 -3.315,1.331 -5.237,1.441c-0.309,0.026 -0.629,0.037 -0.937,0.037c-0.346,0 -0.678,-0.011 -1.023,-0.037c-1.885,-0.123 -3.698,-0.603 -5.163,-1.441c-1.713,-0.998 -2.564,-2.28 -2.577,-3.586c0,-1.295 0.838,-2.589 2.539,-3.574c1.701,-0.998 3.932,-1.491 6.174,-1.491c2.243,0 4.462,0.504 6.187,1.491c1.713,0.985 2.576,2.279 2.576,3.574Z" style="fill:none;fill-rule:nonzero;stroke:#002c51;stroke-width:1px;"/><path d="M196.304,283.778c0,1.294 -0.838,2.575 -2.539,3.562c-1.467,0.85 -3.315,1.331 -5.237,1.441c-0.309,0.025 -0.629,0.037 -0.937,0.037c-0.346,0 -0.678,-0.012 -1.023,-0.037c-1.885,-0.123 -3.698,-0.604 -5.163,-1.441c-1.713,-0.999 -2.564,-2.281 -2.577,-3.586c0,-1.295 0.838,-2.589 2.539,-3.575c1.701,-0.998 3.932,-1.491 6.174,-1.491c2.243,0 4.462,0.505 6.187,1.491c1.713,0.986 2.576,2.28 2.576,3.575l0,0.024Zm-0.838,-4.609c-4.388,-2.539 -11.486,-2.539 -15.849,0c-2.23,1.294 -3.315,2.995 -3.253,4.682c0.025,0.616 0.197,1.233 0.53,1.837c0.086,0.172 0.184,0.333 0.296,0.493c0.394,0.567 0.936,1.109 1.627,1.602c0.258,0.184 0.554,0.382 0.862,0.555c0.912,0.53 1.935,0.936 3.02,1.245c3.055,0.862 6.642,0.875 9.698,0.024c1.134,-0.296 2.181,-0.727 3.118,-1.269c0.271,-0.161 0.53,-0.321 0.776,-0.505c1.652,-1.171 2.478,-2.614 2.478,-4.043c0.012,-1.676 -1.097,-3.352 -3.303,-4.621Z" style="fill:none;fill-rule:nonzero;stroke:#002c51;stroke-width:1px;"/><path d="M198.769,283.79l-0.025,3.883c0,1.651 -1.084,3.29 -3.253,4.559c-4.363,2.527 -11.461,2.527 -15.849,0c-2.206,-1.282 -3.314,-2.958 -3.303,-4.622l0.025,-3.758c0.025,0.616 0.197,1.232 0.53,1.836c0.086,0.172 0.185,0.333 0.296,0.494c0.394,0.566 0.936,1.108 1.627,1.601c0.259,0.185 0.555,0.382 0.862,0.555c0.912,0.53 1.935,0.936 3.02,1.245c3.055,0.862 6.642,0.875 9.698,0.024c1.134,-0.296 2.182,-0.727 3.118,-1.269c0.272,-0.16 0.53,-0.32 0.776,-0.505c1.652,-1.171 2.478,-2.613 2.478,-4.043Z" style="fill:none;fill-rule:nonzero;stroke:#002c51;stroke-width:1px;"/><path d="M196.326,254.139l0,0.024c0,1.294 -0.838,2.576 -2.538,3.562c-1.467,0.851 -3.316,1.331 -5.237,1.441c-0.309,0.026 -0.629,0.037 -0.938,0.037c-0.345,0 -0.678,-0.011 -1.022,-0.037c-1.886,-0.123 -3.698,-0.603 -5.164,-1.441c-1.713,-0.998 -2.563,-2.28 -2.576,-3.586c0,-1.294 0.838,-2.588 2.539,-3.574c1.701,-0.998 3.931,-1.491 6.174,-1.491c2.243,0 4.461,0.505 6.187,1.491c1.713,0.986 2.575,2.28 2.575,3.574Z" style="fill:none;fill-rule:nonzero;stroke:#002c51;stroke-width:1px;"/><path d="M196.326,254.163c0,1.294 -0.838,2.575 -2.538,3.562c-1.467,0.85 -3.316,1.331 -5.237,1.441c-0.309,0.025 -0.629,0.037 -0.938,0.037c-0.345,0 -0.678,-0.012 -1.022,-0.037c-1.886,-0.123 -3.698,-0.604 -5.164,-1.441c-1.713,-0.999 -2.563,-2.281 -2.576,-3.586c0,-1.294 0.838,-2.588 2.539,-3.575c1.701,-0.998 3.931,-1.491 6.174,-1.491c2.243,0 4.461,0.506 6.187,1.491c1.713,0.987 2.575,2.281 2.575,3.575l0,0.024Zm-0.838,-4.609c-4.387,-2.538 -11.485,-2.538 -15.848,0c-2.23,1.294 -3.315,2.995 -3.253,4.683c0.024,0.616 0.197,1.233 0.53,1.836c0.086,0.173 0.184,0.333 0.296,0.493c0.393,0.567 0.936,1.11 1.626,1.602c0.258,0.185 0.554,0.382 0.863,0.555c0.912,0.53 1.935,0.936 3.02,1.245c3.055,0.862 6.641,0.875 9.698,0.024c1.134,-0.296 2.181,-0.727 3.118,-1.269c0.27,-0.161 0.529,-0.321 0.776,-0.505c1.652,-1.171 2.477,-2.614 2.477,-4.042c0.013,-1.677 -1.097,-3.353 -3.303,-4.622Z" style="fill:none;fill-rule:nonzero;stroke:#002c51;stroke-width:1px;"/><path d="M198.791,254.176l-0.024,3.882c0,1.651 -1.084,3.29 -3.253,4.559c-4.364,2.527 -11.463,2.527 -15.85,0c-2.206,-1.281 -3.315,-2.958 -3.303,-4.621l0.025,-3.758c0.024,0.616 0.197,1.232 0.53,1.835c0.086,0.173 0.185,0.333 0.296,0.494c0.393,0.566 0.936,1.109 1.626,1.601c0.259,0.186 0.555,0.382 0.863,0.555c0.912,0.53 1.935,0.936 3.02,1.245c3.055,0.862 6.641,0.875 9.698,0.024c1.134,-0.295 2.182,-0.727 3.118,-1.269c0.271,-0.16 0.529,-0.32 0.776,-0.505c1.652,-1.171 2.477,-2.613 2.477,-4.042Z" style="fill:none;fill-rule:nonzero;stroke:#002c51;stroke-width:1px;"/><path d="M219.744,267.901l0,0.024c0,1.294 -0.839,2.577 -2.539,3.562c-1.467,0.851 -3.315,1.331 -5.237,1.442c-0.309,0.025 -0.629,0.037 -0.937,0.037c-0.346,0 -0.679,-0.012 -1.023,-0.037c-1.886,-0.123 -3.698,-0.604 -5.163,-1.442c-1.714,-0.998 -2.564,-2.279 -2.577,-3.586c0,-1.294 0.838,-2.588 2.539,-3.574c1.701,-0.998 3.931,-1.491 6.174,-1.491c2.243,0 4.461,0.505 6.187,1.491c1.713,0.986 2.576,2.28 2.576,3.574Z" style="fill:none;fill-rule:nonzero;stroke:#002c51;stroke-width:1px;"/><path d="M219.744,267.926c0,1.294 -0.839,2.576 -2.539,3.562c-1.467,0.85 -3.315,1.331 -5.237,1.442c-0.309,0.024 -0.629,0.037 -0.937,0.037c-0.346,0 -0.679,-0.013 -1.023,-0.037c-1.886,-0.123 -3.698,-0.605 -5.163,-1.442c-1.714,-0.999 -2.564,-2.28 -2.577,-3.586c0,-1.294 0.838,-2.588 2.539,-3.575c1.701,-0.998 3.931,-1.491 6.174,-1.491c2.243,0 4.461,0.506 6.187,1.491c1.713,0.987 2.576,2.281 2.576,3.575l0,0.024Zm-0.839,-4.608c-4.387,-2.539 -11.485,-2.539 -15.848,0c-2.23,1.294 -3.315,2.994 -3.253,4.682c0.024,0.616 0.197,1.233 0.53,1.836c0.086,0.173 0.184,0.333 0.296,0.493c0.394,0.568 0.936,1.11 1.626,1.603c0.259,0.184 0.554,0.382 0.863,0.555c0.912,0.529 1.935,0.936 3.02,1.244c3.055,0.862 6.641,0.875 9.698,0.024c1.134,-0.296 2.181,-0.726 3.118,-1.268c0.271,-0.162 0.53,-0.322 0.776,-0.506c1.652,-1.171 2.477,-2.613 2.477,-4.042c0.013,-1.676 -1.097,-3.353 -3.303,-4.621Z" style="fill:none;fill-rule:nonzero;stroke:#002c51;stroke-width:1px;"/><path d="M222.207,267.939l-0.024,3.882c0,1.651 -1.084,3.29 -3.253,4.559c-4.364,2.526 -11.462,2.526 -15.849,0c-2.206,-1.281 -3.315,-2.957 -3.303,-4.622l0.025,-3.757c0.024,0.615 0.197,1.232 0.53,1.834c0.086,0.173 0.185,0.334 0.296,0.495c0.394,0.567 0.936,1.108 1.626,1.601c0.259,0.185 0.555,0.382 0.863,0.555c0.912,0.529 1.935,0.937 3.02,1.245c3.055,0.861 6.641,0.875 9.698,0.024c1.134,-0.296 2.182,-0.726 3.118,-1.269c0.272,-0.161 0.53,-0.32 0.776,-0.505c1.652,-1.171 2.477,-2.613 2.477,-4.043Z" style="fill:none;fill-rule:nonzero;stroke:#002c51;stroke-width:1px;"/><path d="M197.286,110.001c-0.051,-0.019 -0.107,-0.038 -0.15,-0.05l0,-0.032c0.049,0.025 0.099,0.057 0.15,0.082Z" style="fill:none;fill-rule:nonzero;stroke:#002c51;stroke-width:1px;"/><path d="M197.286,110.001c-0.051,-0.019 -0.107,-0.038 -0.15,-0.05l0,-0.032c0.049,0.025 0.099,0.057 0.15,0.082Z" style="fill:none;fill-rule:nonzero;stroke:#002c51;stroke-width:1px;"/><path d="M197.286,110.001c-0.051,-0.019 -0.107,-0.038 -0.15,-0.05l0,-0.032c0.049,0.025 0.099,0.057 0.15,0.082Z" style="fill:none;fill-rule:nonzero;stroke:#002c51;stroke-width:1px;"/><path d="M197.135,109.92l0,0.031c0.043,0.013 0.1,0.031 0.15,0.051c-0.05,-0.025 -0.1,-0.057 -0.15,-0.082Z" style="fill:none;fill-rule:nonzero;stroke:#002c51;stroke-width:1px;"/><path d="M197.135,109.92l0,0.031c0.043,0.013 0.1,0.031 0.15,0.051c-0.05,-0.025 -0.1,-0.057 -0.15,-0.082Z" style="fill:none;fill-rule:nonzero;stroke:#002c51;stroke-width:1px;"/><path d="M209.518,110.02c-0.025,0.013 -0.057,0.025 -0.081,0.038c0.024,-0.013 0.043,-0.025 0.068,-0.038l0.013,0Z" style="fill:none;fill-rule:nonzero;stroke:#002c51;stroke-width:1px;"/><path d="M211.63,108.491l-0.02,10.453c-0.005,0.107 -0.005,0.194 -0.012,0.276c-0.006,0.125 -0.006,0.225 -0.012,0.307c-0.007,0.031 -0.007,0.056 -0.007,0.081c0,0.025 -0.006,0.05 -0.006,0.075c0,0.025 0,0.051 -0.006,0.069c-0.006,0.069 -0.012,0.132 -0.025,0.195c-0.007,0.062 -0.013,0.125 -0.025,0.2c-0.006,0.025 -0.006,0.044 -0.013,0.063c-0.006,0.031 -0.013,0.069 -0.019,0.106c-0.069,0.383 -0.188,0.784 -0.269,1.034c-0.019,0.063 -0.044,0.132 -0.063,0.188c-0.006,0.007 -0.006,0.019 -0.012,0.025c-0.032,0.082 -0.063,0.163 -0.101,0.251c-0.037,0.088 -0.075,0.182 -0.112,0.27c-0.069,0.15 -0.145,0.307 -0.238,0.47c-0.019,0.043 -0.039,0.087 -0.07,0.131c-0.006,0.019 -0.011,0.032 -0.024,0.044c-0.007,0.012 -0.013,0.025 -0.019,0.032c-0.007,0.006 -0.012,0.018 -0.019,0.024c-0.063,0.113 -0.125,0.226 -0.207,0.345c-0.012,0.025 -0.032,0.05 -0.05,0.075c-0.019,0.025 -0.037,0.057 -0.063,0.082c-0.075,0.113 -0.163,0.232 -0.263,0.357c-0.087,0.113 -0.188,0.238 -0.301,0.357c-0.043,0.051 -0.075,0.094 -0.119,0.144c-0.213,0.232 -0.57,0.59 -1.084,0.959c0,0.007 -0.006,0.013 -0.013,0.007c-0.094,0.068 -0.193,0.144 -0.294,0.206c-0.363,0.245 -0.79,0.483 -1.278,0.696c-0.075,0.031 -0.157,0.069 -0.238,0.094c-0.082,0.037 -0.169,0.069 -0.257,0.1c-0.514,0.182 -1.091,0.326 -1.724,0.414c-0.132,0.018 -0.257,0.031 -0.382,0.044c-0.094,0.006 -0.188,0.012 -0.282,0.018c-0.106,0.007 -0.207,0.013 -0.308,0.013c-0.413,0.019 -0.789,0 -1.108,-0.025c-0.107,-0.013 -0.214,-0.019 -0.313,-0.032c-0.02,0 -0.039,0 -0.051,-0.006c-0.195,-0.018 -0.357,-0.043 -0.489,-0.069c-0.069,-0.012 -0.137,-0.025 -0.201,-0.037c-0.018,-0.007 -0.037,-0.007 -0.049,-0.013c-0.125,-0.025 -0.232,-0.05 -0.32,-0.075c-0.126,-0.031 -0.245,-0.063 -0.357,-0.094c-0.477,-0.138 -0.928,-0.313 -1.398,-0.551c-0.112,-0.057 -0.219,-0.113 -0.332,-0.176c-0.119,-0.069 -0.232,-0.138 -0.339,-0.213c-0.012,-0.006 -0.024,-0.013 -0.037,-0.025c-0.37,-0.238 -0.733,-0.495 -1.159,-0.903c-0.15,-0.144 -0.288,-0.288 -0.407,-0.419c-0.031,-0.032 -0.064,-0.069 -0.095,-0.107c-0.031,-0.031 -0.056,-0.063 -0.075,-0.094c-0.075,-0.081 -0.138,-0.169 -0.2,-0.244c-0.038,-0.044 -0.063,-0.088 -0.101,-0.125c-0.018,-0.032 -0.044,-0.07 -0.075,-0.101l0,-0.006c-0.094,-0.125 -0.169,-0.232 -0.219,-0.313c-0.007,-0.013 -0.019,-0.026 -0.019,-0.038c-0.006,-0.006 -0.006,-0.013 -0.012,-0.013c-0.007,-0.018 -0.02,-0.031 -0.025,-0.044c-0.006,-0.012 -0.013,-0.024 -0.019,-0.031c-0.007,-0.006 -0.007,-0.013 -0.013,-0.018c-0.012,-0.026 -0.025,-0.038 -0.025,-0.038c-0.037,-0.063 -0.075,-0.132 -0.1,-0.188c-0.025,-0.044 -0.044,-0.088 -0.076,-0.132c-0.112,-0.225 -0.237,-0.464 -0.325,-0.664c-0.02,-0.037 -0.038,-0.075 -0.051,-0.119c-0.031,-0.069 -0.055,-0.138 -0.081,-0.194c-0.038,-0.113 -0.075,-0.226 -0.106,-0.32c-0.038,-0.138 -0.07,-0.251 -0.101,-0.345c-0.056,-0.225 -0.088,-0.345 -0.112,-0.476c-0.007,-0.013 -0.007,-0.031 -0.007,-0.044c-0.013,-0.05 -0.024,-0.1 -0.031,-0.163c-0.013,-0.043 -0.019,-0.087 -0.025,-0.138c-0.007,-0.018 -0.007,-0.044 -0.012,-0.069c-0.007,-0.056 -0.019,-0.119 -0.019,-0.181c-0.025,-0.188 -0.038,-0.402 -0.051,-0.602c-0.006,-0.119 -0.006,-0.232 -0.012,-0.339l0.025,-10.434c0,0.326 0.275,0.671 0.84,0.991c0.062,0.037 0.125,0.068 0.194,0.1c0.069,0.037 0.138,0.075 0.213,0.1l0,0.007c0.019,0.005 0.038,0.018 0.063,0.024c0.087,0.038 0.181,0.076 0.276,0.113c0.068,0.032 0.138,0.056 0.213,0.082c0.05,0.018 0.106,0.037 0.163,0.056c0.043,0.013 0.099,0.031 0.15,0.05l0.012,0c1.047,0.533 2.852,0.878 4.845,0.978c0.044,0.006 0.088,0.006 0.132,0.006c0.369,0.019 0.745,0.031 1.121,0.031c0.42,0 0.839,-0.012 1.254,-0.031c0.62,-0.031 1.228,-0.081 1.823,-0.163c0.307,-0.044 0.601,-0.087 0.878,-0.138c0.275,-0.056 0.532,-0.112 0.776,-0.169c0.483,-0.125 0.891,-0.263 1.223,-0.414c0.031,-0.012 0.062,-0.025 0.088,-0.044c0.024,-0.012 0.043,-0.024 0.068,-0.037l0.013,0l0.006,-0.006l0.006,0c0.006,0 0.013,-0.006 0.013,-0.006l0.006,0c0.307,-0.095 0.589,-0.201 0.827,-0.308c0.101,-0.043 0.201,-0.087 0.288,-0.137c0.088,-0.044 0.176,-0.094 0.251,-0.145c0.264,-0.162 0.457,-0.332 0.57,-0.513c0.013,-0.019 0.026,-0.032 0.038,-0.051c0.006,-0.012 0.019,-0.025 0.025,-0.044c0.057,-0.106 0.082,-0.213 0.082,-0.319Z" style="fill:none;fill-rule:nonzero;stroke:#002c51;stroke-width:1px;"/><path d="M197.286,110.001c-0.051,-0.019 -0.107,-0.038 -0.15,-0.05l0,-0.032c0.049,0.025 0.099,0.057 0.15,0.082Z" style="fill:none;fill-rule:nonzero;stroke:#002c51;stroke-width:1px;"/><path d="M211.649,98l0,0.031l-0.007,5.233l-0.006,1.128l-0.006,4.099c0,0.106 -0.025,0.213 -0.082,0.319c-0.005,0.019 -0.018,0.032 -0.025,0.044c-0.012,0.019 -0.024,0.031 -0.037,0.05c-0.113,0.182 -0.307,0.351 -0.57,0.514c-0.076,0.05 -0.163,0.101 -0.251,0.145c-0.087,0.049 -0.188,0.093 -0.288,0.137c-0.239,0.107 -0.521,0.213 -0.828,0.307l-0.005,0c0,0 -0.007,0.007 -0.013,0.007l-0.007,0l-0.006,0.006l-0.013,0c-0.025,0.012 -0.044,0.025 -0.068,0.037c-0.025,0.019 -0.057,0.032 -0.088,0.044c-0.332,0.15 -0.74,0.289 -1.222,0.414c-0.245,0.056 -0.501,0.112 -0.777,0.169c-0.276,0.05 -0.57,0.094 -0.878,0.138c-0.594,0.081 -1.203,0.132 -1.823,0.163c-0.414,0.018 -0.834,0.031 -1.254,0.031c-0.376,0 -0.752,-0.013 -1.121,-0.031c-0.044,0 -0.088,0 -0.132,-0.006c-1.993,-0.101 -3.798,-0.445 -4.845,-0.978l-0.011,0c-0.051,-0.025 -0.101,-0.057 -0.151,-0.082l0,0.032c-0.056,-0.019 -0.113,-0.038 -0.163,-0.056c-0.075,-0.026 -0.144,-0.051 -0.213,-0.082c-0.094,-0.038 -0.188,-0.075 -0.276,-0.113c-0.024,-0.006 -0.044,-0.019 -0.063,-0.025l0,-0.006c-0.069,-0.031 -0.144,-0.063 -0.212,-0.101c-0.07,-0.031 -0.132,-0.062 -0.195,-0.1c-0.564,-0.319 -0.84,-0.664 -0.84,-0.99l0,-0.012l0.019,-10.46c0.007,-0.094 0.007,-0.194 0.013,-0.294c0.012,-0.194 0.031,-0.401 0.044,-0.602c0.012,-0.05 0.012,-0.1 0.018,-0.15c0.007,-0.069 0.019,-0.132 0.026,-0.188c0.018,-0.126 0.049,-0.289 0.087,-0.433c0.013,-0.075 0.032,-0.15 0.05,-0.213c0.032,-0.112 0.057,-0.213 0.094,-0.319c0,-0.013 0.007,-0.032 0.013,-0.051c0.069,-0.231 0.15,-0.444 0.225,-0.632c0.038,-0.094 0.075,-0.182 0.114,-0.257c0.125,-0.283 0.225,-0.464 0.25,-0.508c0.044,-0.088 0.094,-0.157 0.138,-0.232c0.056,-0.087 0.113,-0.182 0.169,-0.275c0.094,-0.144 0.195,-0.289 0.288,-0.414c0.013,-0.019 0.032,-0.044 0.044,-0.063c0.037,-0.05 0.075,-0.094 0.107,-0.131l0.093,-0.113c0.151,-0.182 0.27,-0.307 0.483,-0.527l0.138,-0.138c0.038,-0.037 0.082,-0.081 0.138,-0.125c0.044,-0.044 0.1,-0.088 0.151,-0.132c0.106,-0.093 0.231,-0.194 0.357,-0.288c0.175,-0.131 0.363,-0.269 0.545,-0.382c0.057,-0.038 0.112,-0.075 0.169,-0.106c0.069,-0.044 0.132,-0.082 0.194,-0.113c0.063,-0.032 0.125,-0.07 0.189,-0.101c0.011,-0.006 0.031,-0.012 0.043,-0.025c0.194,-0.106 0.37,-0.188 0.514,-0.244c0.087,-0.038 0.175,-0.075 0.276,-0.113c0.062,-0.025 0.125,-0.05 0.194,-0.069c0.257,-0.094 0.552,-0.188 0.902,-0.269c0.189,-0.05 0.383,-0.088 0.583,-0.12c0.157,-0.031 0.32,-0.049 0.489,-0.068c0.37,-0.044 0.758,-0.063 1.16,-0.063c0.15,0 0.332,0.006 0.513,0.019c0.05,0 0.1,0.006 0.144,0.006c0.075,0.006 0.145,0.013 0.207,0.019c0.082,0.006 0.157,0.019 0.233,0.025c0.024,0.006 0.049,0.006 0.075,0.013c0.011,0 0.024,0 0.031,0.006c0.081,0.006 0.15,0.018 0.219,0.031c0.339,0.05 0.57,0.107 0.708,0.138c0.082,0.025 0.201,0.05 0.344,0.094c0.145,0.044 0.314,0.094 0.496,0.163c0.075,0.025 0.15,0.05 0.232,0.081c0.213,0.088 0.451,0.188 0.695,0.314c0.032,0.012 0.057,0.025 0.088,0.044c0.081,0.044 0.169,0.087 0.251,0.137c0.714,0.414 1.266,0.859 1.711,1.316c0.019,0.013 0.031,0.032 0.05,0.051c0.062,0.062 0.125,0.131 0.2,0.212c0.101,0.107 0.189,0.214 0.27,0.32c0.169,0.207 0.344,0.445 0.513,0.721c0.075,0.113 0.145,0.232 0.207,0.338c0.019,0.025 0.038,0.063 0.07,0.113c0.037,0.075 0.088,0.175 0.143,0.295c0.031,0.063 0.07,0.138 0.101,0.213c0.006,0.019 0.012,0.031 0.025,0.05c0.025,0.063 0.05,0.132 0.081,0.2c0.031,0.082 0.063,0.169 0.101,0.257c0.018,0.051 0.037,0.101 0.05,0.157c0.056,0.163 0.106,0.332 0.156,0.514c0.038,0.138 0.107,0.401 0.163,0.777c0.007,0.056 0.013,0.113 0.025,0.175c0.013,0.107 0.026,0.22 0.032,0.364l0,0.025c0.006,0.1 0.012,0.219 0.018,0.357c0.007,0.069 0.007,0.138 0.007,0.207Z" style="fill:#002c51;fill-rule:nonzero;stroke:#002c51;stroke-width:1px;"/><path d="M232.299,127.287c0.041,-0.035 0.085,-0.075 0.117,-0.107l0.028,0.015c-0.046,0.032 -0.098,0.06 -0.145,0.092Z" style="fill:none;fill-rule:nonzero;stroke:#002c51;stroke-width:1px;"/><path d="M232.299,127.287c0.041,-0.035 0.085,-0.075 0.117,-0.107l0.028,0.015c-0.046,0.032 -0.098,0.06 -0.145,0.092Z" style="fill:none;fill-rule:nonzero;stroke:#002c51;stroke-width:1px;"/><path d="M232.299,127.287c0.041,-0.035 0.085,-0.075 0.117,-0.107l0.028,0.015c-0.046,0.032 -0.098,0.06 -0.145,0.092Z" style="fill:none;fill-rule:nonzero;stroke:#002c51;stroke-width:1px;"/><path d="M232.444,127.195l-0.027,-0.015c-0.033,0.032 -0.077,0.072 -0.118,0.107c0.047,-0.032 0.099,-0.06 0.145,-0.092Z" style="fill:none;fill-rule:nonzero;stroke:#002c51;stroke-width:1px;"/><path d="M232.444,127.195l-0.027,-0.015c-0.033,0.032 -0.077,0.072 -0.118,0.107c0.047,-0.032 0.099,-0.06 0.145,-0.092Z" style="fill:none;fill-rule:nonzero;stroke:#002c51;stroke-width:1px;"/><path d="M226.338,137.969c0.001,-0.028 0.006,-0.062 0.007,-0.09c-0.001,0.028 0,0.051 -0.001,0.079c-0.003,0.005 -0.003,0.005 -0.006,0.011Z" style="fill:none;fill-rule:nonzero;stroke:#002c51;stroke-width:1px;"/><path d="M226.648,140.558l-9.126,-5.097c-0.09,-0.057 -0.167,-0.099 -0.235,-0.145c-0.107,-0.066 -0.194,-0.115 -0.262,-0.16c-0.024,-0.02 -0.047,-0.033 -0.068,-0.045c-0.022,-0.012 -0.041,-0.03 -0.063,-0.042c-0.022,-0.012 -0.044,-0.024 -0.058,-0.039c-0.056,-0.039 -0.108,-0.075 -0.157,-0.116c-0.052,-0.036 -0.103,-0.072 -0.163,-0.12c-0.018,-0.017 -0.035,-0.026 -0.049,-0.041c-0.024,-0.021 -0.053,-0.044 -0.084,-0.068c-0.3,-0.246 -0.592,-0.545 -0.772,-0.738c-0.046,-0.047 -0.094,-0.102 -0.134,-0.146c-0.003,-0.009 -0.014,-0.015 -0.017,-0.023c-0.055,-0.068 -0.111,-0.135 -0.169,-0.21c-0.059,-0.075 -0.122,-0.154 -0.181,-0.229c-0.098,-0.134 -0.198,-0.276 -0.295,-0.437c-0.029,-0.038 -0.059,-0.075 -0.082,-0.124c-0.013,-0.015 -0.021,-0.026 -0.025,-0.043c-0.008,-0.012 -0.017,-0.024 -0.019,-0.032c-0.003,-0.009 -0.011,-0.02 -0.013,-0.029c-0.068,-0.109 -0.136,-0.219 -0.201,-0.348c-0.015,-0.023 -0.028,-0.052 -0.041,-0.081c-0.013,-0.028 -0.031,-0.06 -0.041,-0.094c-0.061,-0.12 -0.123,-0.255 -0.183,-0.403c-0.057,-0.132 -0.118,-0.28 -0.166,-0.437c-0.023,-0.063 -0.046,-0.111 -0.069,-0.174c-0.099,-0.299 -0.238,-0.785 -0.311,-1.413c-0.005,-0.003 -0.008,-0.012 0.001,-0.014c-0.015,-0.116 -0.032,-0.24 -0.038,-0.358c-0.037,-0.437 -0.039,-0.925 0.013,-1.456c0.009,-0.081 0.016,-0.17 0.033,-0.254c0.007,-0.089 0.023,-0.181 0.038,-0.273c0.091,-0.537 0.246,-1.111 0.476,-1.707c0.048,-0.124 0.098,-0.24 0.148,-0.355c0.04,-0.085 0.08,-0.171 0.121,-0.256c0.046,-0.096 0.088,-0.187 0.137,-0.274c0.185,-0.371 0.384,-0.691 0.562,-0.958c0.062,-0.087 0.119,-0.177 0.18,-0.258c0.008,-0.017 0.017,-0.033 0.029,-0.041c0.111,-0.161 0.212,-0.291 0.298,-0.394c0.045,-0.054 0.089,-0.108 0.131,-0.157c0.013,-0.013 0.023,-0.03 0.035,-0.037c0.082,-0.098 0.156,-0.179 0.22,-0.243c0.088,-0.094 0.174,-0.183 0.256,-0.267c0.352,-0.349 0.725,-0.658 1.161,-0.953c0.104,-0.071 0.205,-0.137 0.315,-0.205c0.118,-0.071 0.233,-0.136 0.35,-0.192c0.012,-0.008 0.024,-0.016 0.04,-0.021c0.389,-0.207 0.79,-0.4 1.353,-0.575c0.199,-0.061 0.392,-0.111 0.564,-0.151c0.043,-0.013 0.091,-0.022 0.14,-0.031c0.042,-0.012 0.082,-0.019 0.118,-0.02c0.109,-0.026 0.215,-0.038 0.312,-0.056c0.056,-0.012 0.106,-0.013 0.158,-0.027c0.036,-0.002 0.081,-0.005 0.124,-0.017l0.006,0.003c0.154,-0.021 0.284,-0.036 0.38,-0.039c0.013,0 0.031,-0.005 0.042,0.001c0.009,-0.002 0.013,0.001 0.017,-0.005c0.02,0.004 0.036,-0.001 0.05,0c0.015,0.001 0.028,0.001 0.037,-0.001c0.008,-0.003 0.014,0 0.023,-0.002c0.027,0.001 0.045,-0.004 0.045,-0.004c0.073,-0.002 0.151,-0.002 0.213,0.004c0.05,-0.001 0.097,0.004 0.151,-0.002c0.252,0.011 0.521,0.017 0.739,0.038c0.042,0.002 0.084,0.004 0.128,0.014c0.076,0.006 0.149,0.018 0.21,0.023c0.116,0.022 0.233,0.044 0.331,0.062c0.139,0.035 0.252,0.062 0.35,0.081c0.224,0.06 0.343,0.09 0.471,0.132c0.014,0.001 0.031,0.01 0.041,0.016c0.05,0.014 0.1,0.027 0.158,0.052c0.045,0.011 0.086,0.026 0.132,0.045c0.02,0.004 0.042,0.016 0.067,0.023c0.053,0.022 0.113,0.041 0.168,0.071c0.177,0.07 0.369,0.163 0.551,0.249c0.106,0.052 0.205,0.107 0.301,0.154l9.107,5.093c-0.284,-0.159 -0.72,-0.085 -1.274,0.252c-0.063,0.037 -0.121,0.076 -0.181,0.121c-0.067,0.042 -0.133,0.084 -0.192,0.138l-0.006,-0.004c-0.014,0.014 -0.034,0.024 -0.051,0.043c-0.076,0.058 -0.155,0.122 -0.233,0.186c-0.061,0.045 -0.116,0.094 -0.175,0.147c-0.041,0.035 -0.085,0.075 -0.128,0.115c-0.033,0.032 -0.077,0.072 -0.118,0.107l-0.005,0.011c-0.974,0.656 -2.153,2.066 -3.208,3.759c-0.028,0.035 -0.049,0.073 -0.071,0.111c-0.195,0.314 -0.389,0.637 -0.572,0.966c-0.204,0.367 -0.398,0.74 -0.582,1.111c-0.274,0.557 -0.526,1.112 -0.743,1.672c-0.112,0.29 -0.216,0.569 -0.306,0.834c-0.085,0.268 -0.161,0.52 -0.23,0.762c-0.125,0.482 -0.203,0.905 -0.233,1.269c-0.004,0.033 -0.008,0.067 -0.004,0.097c-0.001,0.029 0,0.051 -0.001,0.079c-0.003,0.005 -0.003,0.005 -0.006,0.011l0.002,0.008l-0.003,0.006c-0.002,0.005 0,0.014 0,0.014l-0.002,0.005c-0.068,0.314 -0.112,0.613 -0.134,0.872c-0.011,0.109 -0.022,0.219 -0.02,0.32c-0.005,0.097 -0.004,0.198 0.004,0.289c0.015,0.309 0.068,0.561 0.172,0.748c0.011,0.02 0.016,0.037 0.025,0.057c0.008,0.012 0.013,0.029 0.027,0.043c0.065,0.102 0.146,0.175 0.239,0.227Z" style="fill:none;fill-rule:nonzero;stroke:#002c51;stroke-width:1px;"/><path d="M232.299,127.287c0.041,-0.035 0.085,-0.075 0.117,-0.107l0.028,0.015c-0.046,0.032 -0.098,0.06 -0.145,0.092Z" style="fill:none;fill-rule:nonzero;stroke:#002c51;stroke-width:1px;"/><path d="M235.808,145.673l-0.027,-0.016l-4.571,-2.548l-0.983,-0.554l-3.579,-1.997c-0.093,-0.052 -0.174,-0.125 -0.239,-0.226c-0.014,-0.015 -0.019,-0.032 -0.027,-0.044c-0.01,-0.02 -0.014,-0.037 -0.025,-0.057c-0.104,-0.187 -0.157,-0.439 -0.172,-0.748c-0.008,-0.09 -0.009,-0.191 -0.004,-0.289c-0.002,-0.101 0.009,-0.21 0.02,-0.319c0.022,-0.26 0.066,-0.558 0.133,-0.872l0.003,-0.006c0,0 -0.003,-0.009 0,-0.014l0.003,-0.005l-0.002,-0.009c0.003,-0.005 0.003,-0.005 0.006,-0.011c0.001,-0.028 0,-0.05 0.001,-0.078c-0.004,-0.031 0,-0.065 0.004,-0.098c0.03,-0.364 0.107,-0.787 0.232,-1.269c0.07,-0.241 0.146,-0.493 0.231,-0.762c0.09,-0.265 0.194,-0.544 0.306,-0.833c0.217,-0.56 0.469,-1.116 0.743,-1.673c0.184,-0.371 0.378,-0.744 0.582,-1.111c0.182,-0.329 0.377,-0.651 0.572,-0.965c0.022,-0.038 0.043,-0.077 0.07,-0.112c1.056,-1.693 2.235,-3.103 3.208,-3.759l0.006,-0.011c0.047,-0.031 0.099,-0.06 0.145,-0.092l-0.028,-0.015c0.044,-0.04 0.088,-0.08 0.129,-0.115c0.059,-0.053 0.114,-0.101 0.175,-0.146c0.078,-0.064 0.156,-0.128 0.233,-0.186c0.017,-0.019 0.037,-0.03 0.051,-0.043l0.006,0.003c0.061,-0.045 0.125,-0.096 0.192,-0.138c0.06,-0.045 0.118,-0.084 0.181,-0.121c0.554,-0.337 0.989,-0.411 1.274,-0.252c0.005,0.003 0.005,0.003 0.01,0.006l9.133,5.099c0.079,0.052 0.166,0.1 0.251,0.154c0.163,0.106 0.335,0.223 0.504,0.331c0.038,0.035 0.082,0.06 0.123,0.089c0.057,0.04 0.106,0.081 0.152,0.114c0.1,0.077 0.228,0.184 0.335,0.286c0.06,0.048 0.117,0.101 0.163,0.148c0.083,0.082 0.158,0.153 0.233,0.238c0.011,0.005 0.024,0.02 0.037,0.035c0.17,0.173 0.316,0.347 0.444,0.505c0.064,0.078 0.122,0.153 0.169,0.223c0.186,0.246 0.296,0.423 0.323,0.466c0.055,0.081 0.09,0.158 0.135,0.233c0.049,0.092 0.104,0.187 0.159,0.282c0.081,0.152 0.158,0.31 0.221,0.453c0.011,0.02 0.024,0.048 0.033,0.069c0.027,0.057 0.046,0.111 0.064,0.156c0.017,0.046 0.035,0.092 0.053,0.138c0.086,0.219 0.137,0.384 0.225,0.677l0.054,0.187c0.015,0.052 0.031,0.111 0.043,0.182c0.016,0.06 0.027,0.13 0.042,0.195c0.03,0.139 0.057,0.297 0.078,0.453c0.029,0.217 0.059,0.448 0.069,0.662c0.005,0.068 0.011,0.135 0.011,0.2c0.005,0.081 0.007,0.154 0.004,0.224c-0.003,0.07 -0.001,0.143 -0.004,0.213c0,0.014 -0.004,0.034 0.001,0.051c-0.002,0.221 -0.016,0.414 -0.036,0.568c-0.01,0.095 -0.02,0.189 -0.035,0.295c-0.009,0.067 -0.018,0.134 -0.034,0.204c-0.043,0.27 -0.105,0.573 -0.204,0.919c-0.047,0.189 -0.109,0.377 -0.179,0.568c-0.049,0.152 -0.112,0.303 -0.177,0.46c-0.142,0.345 -0.314,0.694 -0.509,1.044c-0.073,0.132 -0.167,0.287 -0.266,0.44c-0.025,0.044 -0.054,0.085 -0.076,0.123c-0.042,0.063 -0.081,0.12 -0.117,0.172c-0.045,0.067 -0.093,0.127 -0.135,0.19c-0.017,0.019 -0.029,0.041 -0.046,0.06c-0.007,0.01 -0.013,0.022 -0.022,0.024c-0.045,0.068 -0.089,0.122 -0.134,0.176c-0.208,0.272 -0.37,0.447 -0.465,0.553c-0.061,0.059 -0.14,0.15 -0.249,0.255c-0.108,0.104 -0.234,0.228 -0.382,0.353c-0.059,0.054 -0.118,0.107 -0.185,0.164c-0.18,0.143 -0.383,0.302 -0.611,0.455c-0.027,0.022 -0.05,0.037 -0.081,0.055c-0.078,0.051 -0.159,0.106 -0.242,0.153c-0.709,0.423 -1.367,0.689 -1.983,0.855c-0.019,0.011 -0.042,0.012 -0.067,0.02c-0.086,0.024 -0.176,0.045 -0.284,0.071c-0.142,0.037 -0.278,0.061 -0.411,0.08c-0.262,0.048 -0.556,0.085 -0.88,0.1c-0.134,0.01 -0.272,0.013 -0.395,0.016c-0.031,0.004 -0.073,0.002 -0.133,0.005c-0.084,-0.003 -0.195,-0.008 -0.327,-0.017c-0.07,-0.003 -0.154,-0.007 -0.235,-0.016c-0.02,-0.004 -0.034,-0.004 -0.056,-0.003c-0.067,-0.008 -0.14,-0.02 -0.215,-0.025c-0.086,-0.013 -0.179,-0.028 -0.273,-0.038c-0.053,-0.008 -0.106,-0.016 -0.161,-0.032c-0.17,-0.03 -0.342,-0.069 -0.526,-0.113c-0.138,-0.034 -0.402,-0.102 -0.758,-0.235c-0.052,-0.022 -0.104,-0.044 -0.166,-0.063c-0.098,-0.041 -0.204,-0.085 -0.333,-0.15l-0.021,-0.012c-0.091,-0.044 -0.198,-0.096 -0.321,-0.157c-0.064,-0.028 -0.124,-0.062 -0.184,-0.095Z" style="fill:#002c51;fill-rule:nonzero;stroke:#002c51;stroke-width:1px;"/><path d="M224.55,240.792c-0.051,-0.019 -0.106,-0.037 -0.15,-0.05l0,-0.031c0.049,0.024 0.099,0.057 0.15,0.081Z" style="fill:none;fill-rule:nonzero;stroke:#002c51;stroke-width:1px;"/><path d="M224.55,240.792c-0.051,-0.019 -0.106,-0.037 -0.15,-0.05l0,-0.031c0.049,0.024 0.099,0.057 0.15,0.081Z" style="fill:none;fill-rule:nonzero;stroke:#002c51;stroke-width:1px;"/><path d="M224.55,240.792c-0.051,-0.019 -0.106,-0.037 -0.15,-0.05l0,-0.031c0.049,0.024 0.099,0.057 0.15,0.081Z" style="fill:none;fill-rule:nonzero;stroke:#002c51;stroke-width:1px;"/><path d="M224.4,240.711l0,0.031c0.044,0.013 0.1,0.031 0.15,0.05c-0.05,-0.024 -0.1,-0.057 -0.15,-0.081Z" style="fill:none;fill-rule:nonzero;stroke:#002c51;stroke-width:1px;"/><path d="M224.4,240.711l0,0.031c0.044,0.013 0.1,0.031 0.15,0.05c-0.05,-0.024 -0.1,-0.057 -0.15,-0.081Z" style="fill:none;fill-rule:nonzero;stroke:#002c51;stroke-width:1px;"/><path d="M236.783,240.811c-0.025,0.013 -0.057,0.025 -0.081,0.038c0.024,-0.013 0.044,-0.025 0.068,-0.038l0.013,0Z" style="fill:none;fill-rule:nonzero;stroke:#002c51;stroke-width:1px;"/><path d="M238.895,239.282l-0.019,10.453c-0.006,0.107 -0.006,0.194 -0.012,0.276c-0.007,0.125 -0.007,0.225 -0.013,0.306c-0.007,0.031 -0.007,0.057 -0.007,0.082c0,0.026 -0.006,0.05 -0.006,0.075c0,0.026 0,0.05 -0.005,0.069c-0.007,0.069 -0.013,0.132 -0.026,0.194c-0.006,0.064 -0.013,0.126 -0.025,0.201c-0.006,0.025 -0.006,0.044 -0.013,0.063c-0.006,0.031 -0.012,0.068 -0.019,0.106c-0.068,0.382 -0.187,0.783 -0.269,1.034c-0.019,0.063 -0.044,0.132 -0.063,0.188c-0.005,0.007 -0.005,0.019 -0.012,0.025c-0.032,0.081 -0.063,0.163 -0.1,0.251c-0.038,0.088 -0.075,0.182 -0.113,0.27c-0.069,0.15 -0.145,0.306 -0.238,0.47c-0.019,0.043 -0.038,0.087 -0.069,0.131c-0.007,0.019 -0.012,0.032 -0.025,0.044c-0.006,0.012 -0.013,0.025 -0.019,0.032c-0.007,0.005 -0.012,0.018 -0.019,0.024c-0.063,0.113 -0.125,0.226 -0.206,0.345c-0.013,0.025 -0.032,0.05 -0.051,0.075c-0.019,0.025 -0.037,0.057 -0.063,0.082c-0.075,0.112 -0.163,0.231 -0.262,0.357c-0.088,0.113 -0.189,0.238 -0.301,0.357c-0.044,0.051 -0.075,0.094 -0.119,0.144c-0.214,0.232 -0.571,0.589 -1.085,0.959c0,0.006 -0.006,0.013 -0.012,0.006c-0.095,0.069 -0.194,0.145 -0.295,0.207c-0.363,0.244 -0.79,0.483 -1.278,0.695c-0.075,0.032 -0.157,0.07 -0.238,0.094c-0.081,0.038 -0.169,0.07 -0.257,0.101c-0.514,0.181 -1.091,0.326 -1.724,0.414c-0.132,0.018 -0.257,0.031 -0.382,0.044c-0.093,0.006 -0.188,0.012 -0.282,0.018c-0.106,0.006 -0.207,0.013 -0.307,0.013c-0.414,0.019 -0.79,0 -1.109,-0.025c-0.106,-0.013 -0.213,-0.019 -0.313,-0.032c-0.019,0 -0.039,0 -0.05,-0.005c-0.195,-0.02 -0.358,-0.044 -0.49,-0.07c-0.069,-0.012 -0.137,-0.025 -0.2,-0.038c-0.019,-0.006 -0.038,-0.006 -0.05,-0.012c-0.125,-0.025 -0.232,-0.05 -0.32,-0.075c-0.125,-0.032 -0.244,-0.063 -0.357,-0.094c-0.476,-0.138 -0.927,-0.314 -1.398,-0.551c-0.112,-0.057 -0.218,-0.114 -0.332,-0.176c-0.119,-0.069 -0.231,-0.138 -0.338,-0.213c-0.012,-0.007 -0.025,-0.013 -0.038,-0.025c-0.37,-0.239 -0.733,-0.495 -1.159,-0.903c-0.15,-0.144 -0.288,-0.288 -0.407,-0.42c-0.031,-0.031 -0.063,-0.069 -0.094,-0.106c-0.032,-0.031 -0.057,-0.063 -0.075,-0.094c-0.075,-0.082 -0.139,-0.17 -0.201,-0.245c-0.037,-0.043 -0.063,-0.087 -0.101,-0.125c-0.018,-0.031 -0.043,-0.069 -0.075,-0.1l0,-0.006c-0.094,-0.125 -0.169,-0.232 -0.219,-0.314c-0.007,-0.013 -0.018,-0.025 -0.018,-0.037c-0.007,-0.007 -0.007,-0.013 -0.013,-0.013c-0.007,-0.018 -0.019,-0.031 -0.025,-0.044c-0.006,-0.012 -0.013,-0.025 -0.019,-0.031c-0.007,-0.007 -0.007,-0.013 -0.013,-0.018c-0.012,-0.026 -0.025,-0.038 -0.025,-0.038c-0.037,-0.063 -0.075,-0.132 -0.1,-0.188c-0.025,-0.044 -0.044,-0.088 -0.075,-0.132c-0.113,-0.225 -0.238,-0.464 -0.326,-0.664c-0.019,-0.038 -0.038,-0.075 -0.05,-0.119c-0.031,-0.069 -0.056,-0.139 -0.082,-0.194c-0.037,-0.114 -0.075,-0.226 -0.106,-0.321c-0.037,-0.137 -0.069,-0.25 -0.101,-0.344c-0.056,-0.226 -0.087,-0.344 -0.112,-0.476c-0.006,-0.013 -0.006,-0.031 -0.006,-0.044c-0.013,-0.051 -0.025,-0.1 -0.032,-0.163c-0.012,-0.044 -0.019,-0.088 -0.025,-0.138c-0.007,-0.018 -0.007,-0.044 -0.012,-0.069c-0.006,-0.057 -0.019,-0.119 -0.019,-0.182c-0.025,-0.187 -0.038,-0.401 -0.051,-0.601c-0.006,-0.119 -0.006,-0.232 -0.011,-0.338l0.024,-10.435c0,0.326 0.276,0.671 0.84,0.991c0.062,0.037 0.125,0.068 0.194,0.099c0.069,0.038 0.138,0.075 0.213,0.101l0,0.007c0.019,0.005 0.038,0.018 0.063,0.024c0.087,0.038 0.181,0.075 0.276,0.113c0.068,0.032 0.138,0.056 0.213,0.081c0.05,0.019 0.106,0.038 0.163,0.057c0.044,0.013 0.099,0.031 0.15,0.05l0.013,0c1.046,0.533 2.851,0.878 4.844,0.977c0.044,0.007 0.088,0.007 0.132,0.007c0.369,0.019 0.746,0.031 1.122,0.031c0.42,0 0.838,-0.012 1.253,-0.031c0.62,-0.031 1.228,-0.082 1.823,-0.163c0.307,-0.044 0.601,-0.088 0.878,-0.138c0.275,-0.056 0.532,-0.113 0.777,-0.17c0.482,-0.125 0.89,-0.262 1.222,-0.413c0.031,-0.012 0.062,-0.025 0.088,-0.044c0.024,-0.012 0.044,-0.025 0.068,-0.038l0.013,0l0.007,-0.006l0.005,0c0.006,0 0.013,-0.005 0.013,-0.005l0.006,0c0.308,-0.095 0.589,-0.202 0.827,-0.308c0.101,-0.044 0.201,-0.088 0.289,-0.138c0.087,-0.044 0.175,-0.093 0.25,-0.144c0.264,-0.162 0.458,-0.332 0.57,-0.514c0.013,-0.018 0.026,-0.031 0.039,-0.05c0.005,-0.012 0.018,-0.025 0.024,-0.044c0.057,-0.106 0.082,-0.213 0.082,-0.319Z" style="fill:none;fill-rule:nonzero;stroke:#002c51;stroke-width:1px;"/><path d="M224.55,240.792c-0.051,-0.019 -0.106,-0.037 -0.15,-0.05l0,-0.031c0.049,0.024 0.099,0.057 0.15,0.081Z" style="fill:none;fill-rule:nonzero;stroke:#002c51;stroke-width:1px;"/><path d="M238.914,228.791l0,0.031l-0.006,5.234l-0.007,1.128l-0.006,4.098c0,0.107 -0.025,0.213 -0.082,0.32c-0.005,0.018 -0.018,0.031 -0.024,0.043c-0.013,0.019 -0.025,0.032 -0.038,0.05c-0.112,0.182 -0.307,0.352 -0.57,0.514c-0.076,0.051 -0.163,0.101 -0.25,0.145c-0.088,0.049 -0.189,0.093 -0.289,0.137c-0.239,0.107 -0.52,0.213 -0.828,0.308l-0.005,0c0,0 -0.007,0.006 -0.013,0.006l-0.006,0l-0.007,0.006l-0.013,0c-0.024,0.012 -0.044,0.025 -0.068,0.038c-0.025,0.018 -0.057,0.031 -0.088,0.044c-0.332,0.15 -0.739,0.288 -1.221,0.413c-0.246,0.056 -0.502,0.113 -0.778,0.17c-0.276,0.049 -0.57,0.093 -0.878,0.137c-0.594,0.081 -1.203,0.132 -1.823,0.163c-0.414,0.019 -0.833,0.032 -1.253,0.032c-0.376,0 -0.753,-0.013 -1.122,-0.032c-0.044,0 -0.088,0 -0.132,-0.006c-1.993,-0.1 -3.798,-0.445 -4.844,-0.978l-0.012,0c-0.051,-0.024 -0.101,-0.057 -0.151,-0.081l0,0.031c-0.056,-0.018 -0.113,-0.038 -0.163,-0.056c-0.075,-0.026 -0.144,-0.05 -0.213,-0.082c-0.094,-0.038 -0.188,-0.075 -0.276,-0.113c-0.024,-0.006 -0.044,-0.018 -0.063,-0.024l0,-0.007c-0.068,-0.031 -0.143,-0.063 -0.212,-0.101c-0.07,-0.031 -0.132,-0.062 -0.195,-0.099c-0.563,-0.32 -0.84,-0.664 -0.84,-0.99l0,-0.013l0.019,-10.459c0.007,-0.095 0.007,-0.194 0.013,-0.295c0.012,-0.194 0.031,-0.401 0.044,-0.602c0.012,-0.049 0.012,-0.1 0.018,-0.15c0.007,-0.069 0.02,-0.132 0.026,-0.188c0.018,-0.126 0.049,-0.289 0.087,-0.432c0.013,-0.075 0.032,-0.151 0.05,-0.213c0.032,-0.113 0.057,-0.214 0.095,-0.32c0,-0.013 0.006,-0.032 0.012,-0.05c0.069,-0.232 0.15,-0.445 0.225,-0.633c0.038,-0.094 0.075,-0.182 0.114,-0.257c0.125,-0.282 0.225,-0.464 0.251,-0.508c0.043,-0.088 0.093,-0.157 0.137,-0.232c0.057,-0.087 0.113,-0.182 0.169,-0.275c0.094,-0.144 0.195,-0.289 0.288,-0.414c0.013,-0.019 0.031,-0.043 0.043,-0.063c0.038,-0.05 0.076,-0.094 0.108,-0.131c0.03,-0.038 0.061,-0.075 0.094,-0.113c0.15,-0.182 0.269,-0.307 0.483,-0.527l0.137,-0.137c0.037,-0.038 0.082,-0.081 0.137,-0.125c0.044,-0.044 0.101,-0.088 0.151,-0.132c0.106,-0.094 0.231,-0.194 0.357,-0.288c0.175,-0.132 0.363,-0.27 0.545,-0.383c0.058,-0.037 0.113,-0.075 0.169,-0.106c0.07,-0.044 0.132,-0.081 0.194,-0.113c0.064,-0.031 0.126,-0.069 0.19,-0.1c0.012,-0.006 0.031,-0.013 0.043,-0.026c0.195,-0.106 0.369,-0.187 0.513,-0.244c0.088,-0.038 0.177,-0.075 0.276,-0.113c0.062,-0.024 0.126,-0.05 0.194,-0.068c0.257,-0.094 0.553,-0.189 0.903,-0.27c0.189,-0.05 0.382,-0.088 0.583,-0.119c0.157,-0.031 0.32,-0.05 0.489,-0.069c0.369,-0.044 0.757,-0.063 1.16,-0.063c0.149,0 0.332,0.007 0.513,0.019c0.049,0 0.101,0.006 0.144,0.006c0.076,0.006 0.144,0.013 0.207,0.019c0.082,0.007 0.156,0.019 0.232,0.025c0.025,0.006 0.049,0.006 0.076,0.013c0.012,0 0.024,0 0.031,0.006c0.081,0.006 0.149,0.018 0.22,0.031c0.338,0.051 0.569,0.107 0.708,0.138c0.081,0.025 0.2,0.051 0.344,0.095c0.144,0.044 0.313,0.093 0.496,0.162c0.075,0.025 0.149,0.051 0.231,0.082c0.213,0.088 0.451,0.187 0.695,0.313c0.032,0.013 0.056,0.025 0.088,0.044c0.082,0.044 0.169,0.088 0.251,0.138c0.714,0.413 1.266,0.858 1.711,1.315c0.018,0.013 0.03,0.033 0.049,0.051c0.063,0.063 0.125,0.132 0.201,0.213c0.101,0.106 0.189,0.213 0.269,0.319c0.171,0.207 0.344,0.446 0.514,0.721c0.075,0.113 0.144,0.232 0.206,0.339c0.02,0.024 0.038,0.062 0.071,0.112c0.036,0.075 0.088,0.176 0.143,0.295c0.031,0.063 0.07,0.138 0.101,0.213c0.006,0.019 0.012,0.031 0.024,0.05c0.026,0.063 0.05,0.132 0.082,0.201c0.031,0.081 0.063,0.169 0.101,0.257c0.018,0.05 0.037,0.1 0.049,0.156c0.056,0.163 0.107,0.332 0.157,0.514c0.037,0.138 0.106,0.401 0.163,0.777c0.006,0.057 0.012,0.113 0.024,0.176c0.013,0.106 0.026,0.22 0.032,0.363l0,0.026c0.006,0.099 0.012,0.218 0.019,0.357c0.006,0.068 0.006,0.138 0.006,0.206Z" style="fill:#002c51;fill-rule:nonzero;stroke:#002c51;stroke-width:1px;"/><path d="M256.362,210.365c-0.04,-0.034 -0.084,-0.074 -0.116,-0.106l-0.028,0.014c0.046,0.031 0.098,0.061 0.144,0.092Z" style="fill:none;fill-rule:nonzero;stroke:#002c51;stroke-width:1px;"/><path d="M256.362,210.365c-0.04,-0.034 -0.084,-0.074 -0.116,-0.106l-0.028,0.014c0.046,0.031 0.098,0.061 0.144,0.092Z" style="fill:none;fill-rule:nonzero;stroke:#002c51;stroke-width:1px;"/><path d="M256.362,210.365c-0.04,-0.034 -0.084,-0.074 -0.116,-0.106l-0.028,0.014c0.046,0.031 0.098,0.061 0.144,0.092Z" style="fill:none;fill-rule:nonzero;stroke:#002c51;stroke-width:1px;"/><path d="M256.362,210.365c-0.04,-0.034 -0.084,-0.074 -0.116,-0.106l-0.028,0.014c0.046,0.031 0.098,0.061 0.144,0.092Z" style="fill:none;fill-rule:nonzero;stroke:#002c51;stroke-width:1px;"/><path d="M256.362,210.365c-0.04,-0.034 -0.084,-0.074 -0.116,-0.106l-0.028,0.014c0.046,0.031 0.098,0.061 0.144,0.092Z" style="fill:none;fill-rule:nonzero;stroke:#002c51;stroke-width:1px;"/><path d="M262.324,221.048c-0.002,-0.028 -0.006,-0.062 -0.007,-0.09c0.001,0.028 -0.001,0.051 0,0.078c0.004,0.006 0.004,0.006 0.007,0.012Z" style="fill:none;fill-rule:nonzero;stroke:#002c51;stroke-width:1px;"/><path d="M262.013,223.636l9.127,-5.096c0.09,-0.057 0.166,-0.1 0.234,-0.145c0.107,-0.067 0.195,-0.115 0.263,-0.16c0.024,-0.021 0.046,-0.033 0.068,-0.045c0.022,-0.012 0.04,-0.03 0.063,-0.042c0.021,-0.012 0.044,-0.025 0.057,-0.039c0.057,-0.039 0.109,-0.076 0.158,-0.117c0.051,-0.036 0.103,-0.072 0.163,-0.119c0.018,-0.017 0.035,-0.027 0.049,-0.042c0.024,-0.02 0.053,-0.044 0.084,-0.067c0.299,-0.246 0.592,-0.545 0.772,-0.738c0.046,-0.047 0.094,-0.103 0.134,-0.147c0.002,-0.009 0.014,-0.014 0.016,-0.022c0.055,-0.068 0.112,-0.135 0.17,-0.21c0.058,-0.075 0.122,-0.155 0.181,-0.23c0.098,-0.134 0.198,-0.275 0.295,-0.436c0.029,-0.038 0.059,-0.075 0.081,-0.124c0.014,-0.015 0.022,-0.027 0.026,-0.043c0.008,-0.012 0.016,-0.024 0.019,-0.032c0.002,-0.009 0.01,-0.02 0.013,-0.029c0.068,-0.109 0.135,-0.22 0.2,-0.348c0.016,-0.024 0.029,-0.052 0.042,-0.081c0.013,-0.028 0.03,-0.06 0.04,-0.094c0.062,-0.12 0.124,-0.255 0.184,-0.404c0.056,-0.131 0.118,-0.28 0.166,-0.436c0.023,-0.063 0.046,-0.111 0.069,-0.174c0.098,-0.299 0.237,-0.785 0.31,-1.414c0.006,-0.003 0.008,-0.012 0,-0.014c0.015,-0.115 0.032,-0.24 0.037,-0.358c0.038,-0.437 0.039,-0.924 -0.012,-1.455c-0.01,-0.081 -0.017,-0.17 -0.034,-0.254c-0.007,-0.089 -0.022,-0.181 -0.037,-0.273c-0.091,-0.538 -0.246,-1.112 -0.476,-1.708c-0.048,-0.124 -0.098,-0.239 -0.148,-0.355c-0.041,-0.085 -0.081,-0.17 -0.121,-0.255c-0.046,-0.097 -0.089,-0.187 -0.137,-0.274c-0.185,-0.371 -0.384,-0.691 -0.562,-0.958c-0.062,-0.087 -0.12,-0.177 -0.18,-0.258c-0.008,-0.017 -0.018,-0.033 -0.029,-0.041c-0.111,-0.161 -0.212,-0.291 -0.298,-0.394c-0.045,-0.054 -0.089,-0.108 -0.131,-0.157c-0.014,-0.014 -0.023,-0.03 -0.035,-0.038c-0.083,-0.097 -0.156,-0.178 -0.22,-0.242c-0.089,-0.095 -0.174,-0.184 -0.256,-0.267c-0.353,-0.349 -0.725,-0.658 -1.161,-0.954c-0.105,-0.07 -0.205,-0.137 -0.316,-0.204c-0.117,-0.071 -0.232,-0.136 -0.35,-0.192c-0.012,-0.008 -0.023,-0.017 -0.04,-0.021c-0.388,-0.208 -0.79,-0.4 -1.352,-0.575c-0.199,-0.062 -0.393,-0.111 -0.565,-0.152c-0.042,-0.012 -0.091,-0.021 -0.139,-0.031c-0.043,-0.011 -0.082,-0.018 -0.119,-0.019c-0.108,-0.027 -0.215,-0.038 -0.311,-0.057c-0.056,-0.012 -0.107,-0.012 -0.158,-0.026c-0.037,-0.002 -0.082,-0.005 -0.124,-0.018l-0.006,0.003c-0.155,-0.02 -0.285,-0.035 -0.38,-0.039c-0.014,0.001 -0.031,-0.004 -0.042,0.002c-0.009,-0.003 -0.014,0 -0.017,-0.005c-0.02,0.004 -0.036,-0.001 -0.051,-0.001c-0.014,0.001 -0.027,0.002 -0.036,-0.001c-0.009,-0.002 -0.014,0.001 -0.023,-0.002c-0.028,0.001 -0.045,-0.004 -0.045,-0.004c-0.073,-0.002 -0.151,-0.001 -0.213,0.004c-0.05,0 -0.098,0.005 -0.152,-0.002c-0.252,0.012 -0.52,0.018 -0.738,0.038c-0.042,0.002 -0.084,0.004 -0.129,0.015c-0.075,0.006 -0.148,0.018 -0.209,0.023c-0.117,0.022 -0.233,0.044 -0.331,0.062c-0.139,0.034 -0.253,0.062 -0.351,0.08c-0.224,0.061 -0.343,0.091 -0.47,0.133c-0.014,0.001 -0.031,0.01 -0.041,0.016c-0.05,0.013 -0.101,0.027 -0.159,0.051c-0.044,0.011 -0.086,0.027 -0.132,0.046c-0.02,0.003 -0.041,0.016 -0.067,0.023c-0.052,0.021 -0.112,0.041 -0.168,0.071c-0.176,0.069 -0.368,0.162 -0.55,0.249c-0.107,0.052 -0.206,0.107 -0.301,0.153l-9.108,5.093c0.285,-0.158 0.721,-0.085 1.274,0.253c0.063,0.036 0.122,0.076 0.182,0.121c0.067,0.042 0.133,0.084 0.192,0.137l0.005,-0.003c0.014,0.014 0.035,0.024 0.052,0.043c0.075,0.058 0.155,0.122 0.233,0.186c0.06,0.045 0.116,0.093 0.175,0.147c0.041,0.034 0.084,0.074 0.128,0.115c0.033,0.032 0.077,0.072 0.117,0.106c0.003,0.006 0.003,0.006 0.006,0.011c0.974,0.656 2.153,2.067 3.208,3.759c0.028,0.035 0.048,0.074 0.07,0.112c0.196,0.314 0.389,0.637 0.573,0.965c0.203,0.367 0.397,0.74 0.581,1.111c0.275,0.557 0.526,1.113 0.744,1.673c0.111,0.289 0.216,0.569 0.306,0.833c0.085,0.269 0.16,0.521 0.229,0.762c0.125,0.482 0.204,0.905 0.233,1.27c0.005,0.033 0.009,0.066 0.005,0.097c0.001,0.029 -0.001,0.051 0,0.078c0.004,0.006 0.004,0.006 0.007,0.012l-0.003,0.008l0.003,0.006c0.002,0.005 0.001,0.013 0.001,0.013l0.002,0.006c0.068,0.314 0.112,0.613 0.134,0.872c0.011,0.109 0.021,0.218 0.02,0.319c0.004,0.098 0.003,0.199 -0.004,0.29c-0.015,0.308 -0.068,0.56 -0.172,0.748c-0.011,0.019 -0.016,0.037 -0.026,0.056c-0.008,0.012 -0.013,0.03 -0.026,0.044c-0.066,0.101 -0.146,0.174 -0.24,0.226Z" style="fill:#002c51;fill-rule:nonzero;stroke:#002c51;stroke-width:1px;"/><path d="M256.362,210.365c-0.04,-0.034 -0.084,-0.074 -0.116,-0.106l-0.028,0.014c0.046,0.031 0.098,0.061 0.144,0.092Z" style="fill:none;fill-rule:nonzero;stroke:#002c51;stroke-width:1px;"/><path d="M252.854,228.751l0.027,-0.016l4.571,-2.547l0.982,-0.554l3.579,-1.998c0.094,-0.052 0.174,-0.125 0.24,-0.226c0.013,-0.014 0.018,-0.032 0.026,-0.044c0.011,-0.019 0.015,-0.037 0.026,-0.056c0.104,-0.188 0.157,-0.44 0.172,-0.748c0.007,-0.091 0.008,-0.192 0.004,-0.29c0.001,-0.101 -0.009,-0.21 -0.02,-0.319c-0.022,-0.26 -0.066,-0.558 -0.133,-0.872l-0.003,-0.006c0,0 0.002,-0.009 -0.001,-0.013l-0.003,-0.006l0.003,-0.008c-0.003,-0.006 -0.003,-0.006 -0.007,-0.012c-0.001,-0.027 0.001,-0.05 0,-0.078c0.004,-0.031 0,-0.064 -0.005,-0.098c-0.029,-0.364 -0.107,-0.787 -0.232,-1.269c-0.07,-0.241 -0.145,-0.493 -0.23,-0.762c-0.09,-0.265 -0.195,-0.544 -0.306,-0.833c-0.217,-0.56 -0.469,-1.116 -0.744,-1.674c-0.184,-0.37 -0.378,-0.743 -0.581,-1.11c-0.183,-0.328 -0.377,-0.651 -0.573,-0.965c-0.021,-0.038 -0.042,-0.077 -0.069,-0.112c-1.056,-1.693 -2.235,-3.103 -3.208,-3.759c-0.004,-0.005 -0.004,-0.005 -0.007,-0.011c-0.046,-0.031 -0.098,-0.06 -0.144,-0.092l0.028,-0.014c-0.044,-0.041 -0.088,-0.081 -0.129,-0.115c-0.059,-0.054 -0.115,-0.102 -0.175,-0.147c-0.078,-0.064 -0.157,-0.128 -0.233,-0.186c-0.017,-0.019 -0.038,-0.03 -0.052,-0.043l-0.005,0.003c-0.062,-0.045 -0.125,-0.095 -0.192,-0.137c-0.06,-0.045 -0.119,-0.085 -0.182,-0.121c-0.553,-0.338 -0.988,-0.411 -1.274,-0.253c-0.004,0.003 -0.004,0.003 -0.01,0.006l-9.132,5.099c-0.079,0.051 -0.167,0.1 -0.251,0.155c-0.164,0.105 -0.336,0.221 -0.505,0.33c-0.037,0.036 -0.081,0.06 -0.122,0.089c-0.058,0.04 -0.107,0.081 -0.152,0.114c-0.101,0.077 -0.228,0.183 -0.335,0.287c-0.06,0.047 -0.117,0.1 -0.163,0.147c-0.083,0.082 -0.159,0.153 -0.233,0.238c-0.011,0.005 -0.024,0.02 -0.038,0.035c-0.169,0.173 -0.315,0.347 -0.443,0.505c-0.064,0.078 -0.122,0.154 -0.17,0.223c-0.186,0.246 -0.296,0.422 -0.322,0.466c-0.055,0.081 -0.091,0.158 -0.135,0.234c-0.05,0.091 -0.105,0.186 -0.16,0.281c-0.08,0.152 -0.157,0.31 -0.22,0.453c-0.011,0.02 -0.024,0.049 -0.034,0.068c-0.026,0.058 -0.045,0.112 -0.064,0.157l-0.053,0.138c-0.085,0.22 -0.136,0.385 -0.225,0.677l-0.053,0.187c-0.015,0.052 -0.032,0.112 -0.043,0.182c-0.016,0.06 -0.028,0.13 -0.042,0.195c-0.03,0.139 -0.057,0.297 -0.078,0.453c-0.03,0.217 -0.059,0.449 -0.069,0.662c-0.006,0.068 -0.011,0.135 -0.011,0.2c-0.005,0.081 -0.008,0.154 -0.004,0.224c0.003,0.071 0,0.143 0.003,0.213c0.001,0.014 0.005,0.034 0,0.051c0.001,0.222 0.016,0.414 0.036,0.568c0.01,0.095 0.02,0.19 0.035,0.295c0.009,0.068 0.018,0.134 0.034,0.204c0.043,0.27 0.104,0.573 0.204,0.919c0.047,0.189 0.109,0.377 0.179,0.568c0.048,0.152 0.112,0.304 0.177,0.461c0.142,0.344 0.313,0.693 0.509,1.043c0.073,0.132 0.167,0.288 0.265,0.44c0.025,0.044 0.055,0.085 0.077,0.123c0.042,0.063 0.081,0.12 0.117,0.172c0.045,0.067 0.092,0.127 0.134,0.191c0.017,0.018 0.03,0.04 0.047,0.059c0.006,0.011 0.012,0.022 0.021,0.025c0.045,0.067 0.09,0.122 0.134,0.175c0.209,0.272 0.371,0.448 0.465,0.552c0.061,0.06 0.141,0.151 0.25,0.256c0.108,0.104 0.234,0.228 0.382,0.353c0.059,0.054 0.118,0.108 0.184,0.164c0.181,0.143 0.384,0.302 0.612,0.456c0.027,0.021 0.049,0.037 0.081,0.054c0.078,0.05 0.159,0.106 0.242,0.153c0.709,0.423 1.366,0.689 1.982,0.855c0.02,0.011 0.043,0.013 0.068,0.02c0.085,0.024 0.176,0.045 0.283,0.072c0.143,0.035 0.279,0.06 0.412,0.08c0.262,0.047 0.555,0.085 0.879,0.099c0.135,0.01 0.273,0.013 0.396,0.016c0.031,0.004 0.073,0.002 0.132,0.005c0.084,-0.004 0.196,-0.009 0.328,-0.017c0.069,-0.002 0.153,-0.006 0.234,-0.016c0.02,-0.003 0.035,-0.004 0.057,-0.002c0.066,-0.009 0.139,-0.021 0.215,-0.026c0.086,-0.013 0.178,-0.028 0.272,-0.038c0.054,-0.007 0.107,-0.015 0.162,-0.032c0.169,-0.03 0.342,-0.068 0.525,-0.113c0.139,-0.034 0.402,-0.102 0.759,-0.235c0.052,-0.022 0.104,-0.044 0.165,-0.064c0.099,-0.04 0.204,-0.084 0.333,-0.148l0.022,-0.013c0.091,-0.043 0.197,-0.096 0.321,-0.157c0.064,-0.028 0.123,-0.062 0.184,-0.095Z" style="fill:none;fill-rule:nonzero;stroke:#002c51;stroke-width:1px;"/><path d="M260.584,235.717c-0.041,-0.034 -0.084,-0.074 -0.117,-0.106l-0.028,0.014c0.047,0.032 0.099,0.061 0.145,0.092Z" style="fill:none;fill-rule:nonzero;stroke:#002c51;stroke-width:1px;"/><path d="M260.584,235.717c-0.041,-0.034 -0.084,-0.074 -0.117,-0.106l-0.028,0.014c0.047,0.032 0.099,0.061 0.145,0.092Z" style="fill:none;fill-rule:nonzero;stroke:#002c51;stroke-width:1px;"/><path d="M260.584,235.717c-0.041,-0.034 -0.084,-0.074 -0.117,-0.106l-0.028,0.014c0.047,0.032 0.099,0.061 0.145,0.092Z" style="fill:none;fill-rule:nonzero;stroke:#002c51;stroke-width:1px;"/><path d="M260.584,235.717c-0.041,-0.034 -0.084,-0.074 -0.117,-0.106l-0.028,0.014c0.047,0.032 0.099,0.061 0.145,0.092Z" style="fill:none;fill-rule:nonzero;stroke:#002c51;stroke-width:1px;"/><path d="M260.584,235.717c-0.041,-0.034 -0.084,-0.074 -0.117,-0.106l-0.028,0.014c0.047,0.032 0.099,0.061 0.145,0.092Z" style="fill:none;fill-rule:nonzero;stroke:#002c51;stroke-width:1px;"/><path d="M266.546,246.4c-0.002,-0.028 -0.006,-0.062 -0.007,-0.09c0.001,0.028 -0.001,0.051 0,0.078c0.003,0.006 0.003,0.006 0.007,0.012Z" style="fill:none;fill-rule:nonzero;stroke:#002c51;stroke-width:1px;"/><path d="M266.236,248.988l9.127,-5.097c0.09,-0.057 0.166,-0.099 0.234,-0.145c0.107,-0.066 0.195,-0.114 0.263,-0.16c0.024,-0.021 0.046,-0.033 0.068,-0.045c0.022,-0.012 0.04,-0.03 0.063,-0.042c0.021,-0.012 0.044,-0.025 0.057,-0.039c0.057,-0.039 0.109,-0.075 0.158,-0.117c0.051,-0.036 0.103,-0.071 0.163,-0.119c0.018,-0.017 0.035,-0.026 0.049,-0.041c0.023,-0.021 0.053,-0.045 0.084,-0.068c0.299,-0.246 0.592,-0.545 0.772,-0.738c0.046,-0.047 0.094,-0.103 0.134,-0.147c0.002,-0.008 0.014,-0.014 0.016,-0.022c0.055,-0.068 0.112,-0.134 0.17,-0.21c0.058,-0.075 0.122,-0.155 0.181,-0.23c0.098,-0.133 0.198,-0.275 0.295,-0.436c0.029,-0.037 0.058,-0.075 0.081,-0.124c0.014,-0.015 0.022,-0.027 0.026,-0.043c0.008,-0.012 0.016,-0.024 0.019,-0.032c0.002,-0.008 0.01,-0.02 0.013,-0.029c0.067,-0.109 0.135,-0.219 0.2,-0.348c0.015,-0.023 0.028,-0.052 0.042,-0.081c0.013,-0.028 0.03,-0.06 0.04,-0.094c0.062,-0.12 0.124,-0.255 0.184,-0.404c0.056,-0.131 0.118,-0.28 0.166,-0.436c0.023,-0.063 0.046,-0.111 0.069,-0.174c0.098,-0.299 0.237,-0.785 0.31,-1.414c0.006,-0.003 0.008,-0.011 0,-0.014c0.015,-0.115 0.032,-0.239 0.037,-0.357c0.038,-0.437 0.039,-0.925 -0.013,-1.456c-0.009,-0.08 -0.016,-0.17 -0.033,-0.254c-0.007,-0.089 -0.022,-0.181 -0.037,-0.272c-0.091,-0.539 -0.246,-1.112 -0.476,-1.708c-0.048,-0.125 -0.098,-0.24 -0.148,-0.355c-0.041,-0.086 -0.081,-0.171 -0.121,-0.256c-0.046,-0.097 -0.089,-0.187 -0.138,-0.274c-0.185,-0.371 -0.384,-0.691 -0.561,-0.957c-0.062,-0.088 -0.12,-0.178 -0.18,-0.259c-0.008,-0.017 -0.018,-0.033 -0.03,-0.041c-0.11,-0.161 -0.212,-0.291 -0.297,-0.394c-0.045,-0.054 -0.089,-0.108 -0.131,-0.157c-0.014,-0.014 -0.023,-0.03 -0.035,-0.038c-0.083,-0.097 -0.156,-0.178 -0.22,-0.242c-0.089,-0.095 -0.174,-0.184 -0.256,-0.267c-0.353,-0.349 -0.725,-0.658 -1.161,-0.953c-0.105,-0.071 -0.205,-0.138 -0.316,-0.205c-0.118,-0.071 -0.232,-0.136 -0.35,-0.192c-0.012,-0.008 -0.023,-0.016 -0.04,-0.021c-0.388,-0.208 -0.79,-0.4 -1.352,-0.575c-0.199,-0.062 -0.393,-0.111 -0.565,-0.151c-0.043,-0.013 -0.091,-0.022 -0.139,-0.031c-0.043,-0.012 -0.082,-0.019 -0.119,-0.02c-0.108,-0.027 -0.215,-0.038 -0.311,-0.057c-0.056,-0.012 -0.107,-0.012 -0.158,-0.026c-0.037,-0.001 -0.082,-0.005 -0.124,-0.018l-0.006,0.004c-0.155,-0.021 -0.285,-0.036 -0.381,-0.04c-0.013,0.001 -0.03,-0.004 -0.042,0.002c-0.008,-0.002 -0.013,0.001 -0.016,-0.005c-0.02,0.004 -0.036,-0.001 -0.051,-0.001c-0.014,0.001 -0.027,0.002 -0.036,-0.001c-0.009,-0.002 -0.014,0.001 -0.023,-0.002c-0.028,0.002 -0.045,-0.003 -0.045,-0.003c-0.073,-0.003 -0.152,-0.002 -0.213,0.004c-0.05,-0.001 -0.098,0.004 -0.152,-0.002c-0.252,0.011 -0.52,0.017 -0.738,0.038c-0.042,0.001 -0.084,0.003 -0.129,0.014c-0.075,0.006 -0.148,0.018 -0.209,0.023c-0.117,0.022 -0.234,0.044 -0.331,0.062c-0.139,0.034 -0.253,0.062 -0.351,0.08c-0.224,0.061 -0.343,0.091 -0.47,0.133c-0.014,0.001 -0.031,0.01 -0.041,0.017c-0.051,0.012 -0.101,0.026 -0.159,0.051c-0.044,0.01 -0.086,0.026 -0.132,0.045c-0.02,0.003 -0.041,0.016 -0.067,0.023c-0.052,0.021 -0.112,0.041 -0.168,0.071c-0.176,0.07 -0.368,0.162 -0.55,0.249c-0.107,0.053 -0.206,0.107 -0.301,0.153l-9.108,5.093c0.285,-0.158 0.721,-0.085 1.274,0.253c0.063,0.036 0.121,0.076 0.182,0.121c0.067,0.042 0.133,0.084 0.192,0.138l0.005,-0.003c0.014,0.013 0.035,0.023 0.052,0.042c0.075,0.058 0.155,0.122 0.233,0.186c0.06,0.045 0.116,0.093 0.175,0.147c0.041,0.034 0.084,0.075 0.127,0.115c0.034,0.032 0.077,0.072 0.118,0.107l0.005,0.011c0.975,0.656 2.154,2.066 3.209,3.758c0.027,0.035 0.048,0.074 0.07,0.112c0.196,0.315 0.389,0.637 0.572,0.965c0.204,0.367 0.398,0.74 0.582,1.112c0.275,0.556 0.526,1.112 0.744,1.672c0.111,0.289 0.216,0.569 0.306,0.834c0.085,0.268 0.16,0.52 0.229,0.761c0.125,0.483 0.204,0.906 0.233,1.27c0.005,0.033 0.009,0.066 0.005,0.097c0.001,0.029 -0.001,0.051 0,0.078c0.003,0.006 0.003,0.006 0.007,0.012l-0.003,0.008l0.003,0.006c0.002,0.006 0.001,0.013 0.001,0.013l0.002,0.006c0.068,0.315 0.112,0.613 0.134,0.872c0.01,0.11 0.021,0.218 0.02,0.32c0.004,0.097 0.003,0.198 -0.004,0.289c-0.015,0.308 -0.068,0.56 -0.172,0.748c-0.011,0.019 -0.016,0.037 -0.026,0.056c-0.008,0.012 -0.013,0.03 -0.026,0.044c-0.066,0.101 -0.147,0.175 -0.24,0.227Z" style="fill:none;fill-rule:nonzero;stroke:#002c51;stroke-width:1px;"/><path d="M260.584,235.717c-0.041,-0.034 -0.084,-0.074 -0.117,-0.106l-0.028,0.014c0.047,0.032 0.099,0.061 0.145,0.092Z" style="fill:none;fill-rule:nonzero;stroke:#002c51;stroke-width:1px;"/><path d="M257.077,254.103l0.027,-0.015l4.571,-2.548l0.982,-0.554l3.579,-1.997c0.093,-0.052 0.174,-0.126 0.24,-0.227c0.013,-0.014 0.018,-0.032 0.026,-0.044c0.011,-0.019 0.015,-0.037 0.026,-0.056c0.104,-0.188 0.157,-0.44 0.172,-0.748c0.007,-0.091 0.008,-0.192 0.004,-0.29c0.001,-0.101 -0.01,-0.209 -0.02,-0.319c-0.022,-0.26 -0.066,-0.557 -0.133,-0.872l-0.003,-0.006c0,0 0.002,-0.008 -0.001,-0.013l-0.003,-0.006l0.003,-0.008c-0.004,-0.006 -0.004,-0.006 -0.007,-0.012c-0.001,-0.027 0.001,-0.05 0,-0.078c0.004,-0.031 0,-0.064 -0.005,-0.098c-0.029,-0.363 -0.107,-0.787 -0.232,-1.269c-0.07,-0.241 -0.145,-0.493 -0.23,-0.761c-0.09,-0.266 -0.195,-0.545 -0.306,-0.834c-0.218,-0.56 -0.469,-1.116 -0.744,-1.673c-0.184,-0.371 -0.378,-0.744 -0.582,-1.111c-0.182,-0.328 -0.376,-0.65 -0.572,-0.965c-0.021,-0.038 -0.043,-0.077 -0.069,-0.112c-1.056,-1.693 -2.235,-3.103 -3.209,-3.758l-0.006,-0.012c-0.046,-0.031 -0.098,-0.059 -0.145,-0.092l0.028,-0.014c-0.043,-0.04 -0.087,-0.081 -0.128,-0.115c-0.059,-0.054 -0.115,-0.102 -0.175,-0.147c-0.078,-0.064 -0.157,-0.128 -0.233,-0.186c-0.017,-0.019 -0.038,-0.03 -0.052,-0.042l-0.005,0.003c-0.062,-0.045 -0.125,-0.096 -0.192,-0.138c-0.061,-0.045 -0.119,-0.085 -0.182,-0.121c-0.553,-0.338 -0.988,-0.411 -1.274,-0.253c-0.004,0.003 -0.004,0.003 -0.01,0.006l-9.132,5.099c-0.079,0.052 -0.167,0.101 -0.251,0.155c-0.164,0.105 -0.336,0.222 -0.505,0.331c-0.038,0.035 -0.081,0.059 -0.122,0.088c-0.058,0.04 -0.107,0.082 -0.152,0.114c-0.101,0.077 -0.228,0.184 -0.335,0.287c-0.06,0.048 -0.117,0.1 -0.163,0.147c-0.083,0.082 -0.159,0.153 -0.233,0.238c-0.011,0.005 -0.024,0.02 -0.038,0.035c-0.169,0.173 -0.315,0.347 -0.443,0.505c-0.064,0.079 -0.122,0.154 -0.17,0.223c-0.186,0.247 -0.296,0.423 -0.322,0.466c-0.055,0.081 -0.091,0.158 -0.135,0.234c-0.05,0.091 -0.105,0.186 -0.16,0.281c-0.08,0.152 -0.157,0.31 -0.221,0.453c-0.01,0.02 -0.023,0.049 -0.033,0.069c-0.026,0.057 -0.046,0.112 -0.064,0.156l-0.053,0.138c-0.086,0.22 -0.136,0.385 -0.225,0.678l-0.054,0.186c-0.014,0.052 -0.031,0.112 -0.042,0.182c-0.016,0.06 -0.028,0.131 -0.042,0.195c-0.03,0.139 -0.058,0.298 -0.078,0.453c-0.03,0.217 -0.06,0.449 -0.069,0.663c-0.006,0.067 -0.011,0.134 -0.011,0.199c-0.005,0.082 -0.008,0.154 -0.004,0.224c0.003,0.071 0,0.144 0.003,0.213c0.001,0.015 0.005,0.035 0,0.051c0.001,0.222 0.016,0.414 0.036,0.568c0.01,0.095 0.02,0.19 0.035,0.295c0.009,0.068 0.018,0.135 0.034,0.205c0.043,0.269 0.104,0.573 0.204,0.918c0.047,0.19 0.109,0.377 0.178,0.568c0.049,0.152 0.113,0.304 0.178,0.461c0.142,0.345 0.313,0.693 0.509,1.044c0.073,0.131 0.167,0.287 0.265,0.439c0.025,0.044 0.055,0.085 0.077,0.123c0.042,0.063 0.081,0.12 0.116,0.172c0.046,0.068 0.093,0.128 0.135,0.191c0.017,0.018 0.03,0.041 0.047,0.059c0.006,0.011 0.012,0.022 0.021,0.025c0.045,0.068 0.09,0.122 0.134,0.176c0.209,0.271 0.37,0.447 0.465,0.552c0.061,0.059 0.141,0.15 0.25,0.255c0.108,0.104 0.234,0.228 0.382,0.353c0.059,0.054 0.118,0.108 0.184,0.164c0.181,0.143 0.384,0.303 0.612,0.456c0.027,0.021 0.049,0.037 0.081,0.055c0.078,0.05 0.159,0.105 0.242,0.152c0.709,0.423 1.366,0.689 1.982,0.856c0.02,0.01 0.043,0.012 0.068,0.019c0.085,0.024 0.176,0.045 0.283,0.072c0.143,0.036 0.279,0.06 0.412,0.08c0.262,0.047 0.555,0.085 0.879,0.099c0.135,0.01 0.272,0.013 0.396,0.016c0.031,0.004 0.073,0.002 0.132,0.005c0.084,-0.003 0.196,-0.008 0.328,-0.017c0.069,-0.002 0.153,-0.006 0.234,-0.015c0.02,-0.004 0.034,-0.005 0.057,-0.003c0.066,-0.009 0.139,-0.021 0.214,-0.026c0.087,-0.012 0.179,-0.028 0.273,-0.038c0.054,-0.007 0.107,-0.015 0.161,-0.032c0.17,-0.03 0.343,-0.068 0.526,-0.113c0.138,-0.034 0.402,-0.102 0.759,-0.235c0.051,-0.022 0.104,-0.043 0.165,-0.063c0.099,-0.041 0.204,-0.085 0.333,-0.149l0.022,-0.013c0.091,-0.043 0.197,-0.096 0.321,-0.157c0.064,-0.028 0.123,-0.062 0.184,-0.095Z" style="fill:#002c51;fill-rule:nonzero;stroke:#002c51;stroke-width:1px;"/></g></svg>